<?xml version="1.0" standalone="no"?>
<!DOCTYPE svg PUBLIC "-//W3C//DTD SVG 20010904//EN"
 "http://www.w3.org/TR/2001/REC-SVG-20010904/DTD/svg10.dtd">
<svg version="1.0" xmlns="http://www.w3.org/2000/svg"
 width="321.000000pt" height="321.000000pt" viewBox="0 0 321.000000 321.000000"
 preserveAspectRatio="xMidYMid meet">
<metadata>
Created by potrace 1.11, written by Peter Selinger 2001-2013
</metadata>
<g transform="translate(0.000000,321.000000) scale(0.100000,-0.100000)"
fill="#000000" stroke="none">
<path d="M712 3148 c-10 -29 -34 -97 -53 -150 l-33 -98 -158 -2 -159 -3 121
-93 c66 -51 120 -99 120 -106 0 -7 -7 -33 -16 -59 l-16 -47 -84 0 c-77 0 -87
-2 -109 -25 l-25 -24 0 -1243 c1 -961 3 -1247 13 -1259 30 -39 16 -39 1287
-39 1271 0 1257 0 1287 39 10 12 12 298 13 1259 l0 1243 -25 24 c-22 23 -32
25 -109 25 l-84 0 -16 47 c-9 26 -16 52 -16 59 0 7 54 55 120 106 l121 93
-159 3 -158 2 -48 138 c-25 75 -50 143 -55 150 -5 9 -27 -40 -61 -137 l-52
-151 -161 0 -160 0 123 -96 c121 -96 122 -97 115 -131 -3 -19 -10 -46 -15 -59
l-10 -24 -218 0 -219 0 -16 57 c-14 48 -14 58 -2 67 8 6 63 49 123 96 l110 85
-161 5 -160 5 -51 143 c-27 78 -53 142 -56 142 -3 0 -29 -64 -56 -142 l-51
-143 -160 -5 -161 -5 110 -85 c60 -47 115 -90 123 -96 12 -9 12 -19 -2 -67
l-16 -57 -219 0 -218 0 -10 24 c-5 13 -12 40 -15 59 -7 34 -6 35 115 131 l123
96 -160 0 -161 0 -52 150 c-29 83 -54 150 -56 150 -1 0 -11 -24 -22 -52z
m1387 -818 c195 -25 379 -112 519 -245 l84 -80 -127 -133 c-122 -127 -127
-131 -143 -113 -68 77 -211 159 -323 186 -287 67 -604 -124 -709 -429 -107
-311 26 -664 307 -813 185 -99 387 -98 591 2 l92 46 0 164 0 165 -215 0 -215
0 0 185 0 185 388 -2 387 -3 3 -439 2 -439 -22 -25 c-102 -109 -303 -216 -497
-264 -123 -31 -313 -30 -431 1 -389 103 -678 429 -745 842 -86 532 239 1058
733 1184 129 33 205 39 321 25z m-1271 -1037 l2 -993 -185 0 -185 0 0 995 0
995 183 -2 182 -3 3 -992z"/>
</g>
</svg>
