<svg xmlns="http://www.w3.org/2000/svg" width="289.58" height="134.66" viewBox="0 0 289.58 134.66">
  <g id="logo-inverted" transform="translate(-1467.92 -68.84)">
    <path id="Path_1" data-name="Path 1" d="M1.46,26.7V6.076H9.3a6.861,6.861,0,0,1,4.8,1.635,5.59,5.59,0,0,1,1.8,4.345A5.59,5.59,0,0,1,14.1,16.4a6.861,6.861,0,0,1-4.8,1.635H4.141V26.7ZM4.141,15.62H9.208a4.133,4.133,0,0,0,2.872-.943,3.349,3.349,0,0,0,1.046-2.622A3.4,3.4,0,0,0,12.08,9.419a4.093,4.093,0,0,0-2.872-.957H4.141ZM34.808,26.7H31.744l-5.715-9.191H21.463V26.7H18.782V6.076h7.424a6.861,6.861,0,0,1,4.713,1.561,5.269,5.269,0,0,1,1.768,4.154,5.44,5.44,0,0,1-1.016,3.285,5.634,5.634,0,0,1-2.813,2.018ZM21.463,8.462V15.09h4.448a4.572,4.572,0,0,0,2.975-.869,2.967,2.967,0,0,0,1.061-2.43,3.01,3.01,0,0,0-1.061-2.445,4.519,4.519,0,0,0-2.975-.884ZM37.371,26.7V6.076H50.362V8.462H40.051V14.53h8.366v2.416H40.051v7.335H50.686V26.7Zm23.243.236a7.976,7.976,0,0,1-5.155-1.753A7.319,7.319,0,0,1,52.778,20.6l2.533-.825a5.393,5.393,0,0,0,1.8,3.461,5.244,5.244,0,0,0,3.565,1.311,5.609,5.609,0,0,0,3.388-.928,3.038,3.038,0,0,0,.4-4.6,5.129,5.129,0,0,0-2.165-1.267q-1.3-.4-2.828-.9t-2.828-1.031a5.015,5.015,0,0,1-2.165-1.709,4.729,4.729,0,0,1-.869-2.887,4.7,4.7,0,0,1,1.944-3.889,7.956,7.956,0,0,1,5.008-1.5,8.223,8.223,0,0,1,4.831,1.4,5.467,5.467,0,0,1,2.386,3.7l-2.445.943a4.309,4.309,0,0,0-1.576-2.666,5.007,5.007,0,0,0-3.2-.987,5.26,5.26,0,0,0-3.108.81,2.559,2.559,0,0,0-1.134,2.195,2.163,2.163,0,0,0,.648,1.591,4.293,4.293,0,0,0,1.694,1q1.046.354,2.3.678t2.5.766a11.3,11.3,0,0,1,2.3,1.1,4.9,4.9,0,0,1,1.694,1.871,6.026,6.026,0,0,1,.648,2.887,5.072,5.072,0,0,1-2.047,4.213A8.62,8.62,0,0,1,60.614,26.933ZM71.337,26.7V6.076h2.681V26.7Zm6.952,0V6.076h6.128a10.424,10.424,0,0,1,7.409,2.74,9.857,9.857,0,0,1,2.931,7.571,9.857,9.857,0,0,1-2.931,7.571,10.424,10.424,0,0,1-7.409,2.74Zm2.651-2.416h3.388a7.869,7.869,0,0,0,5.465-1.974q2.195-1.974,2.195-5.921a8.645,8.645,0,0,0-1.1-4.522A6.408,6.408,0,0,0,88.1,9.243a8.84,8.84,0,0,0-3.771-.781H80.941ZM98.115,26.7V6.076h12.991V8.462H100.8V14.53h8.366v2.416H100.8v7.335h10.635V26.7Zm16.7,0V6.076h2.975l10.4,16.409V6.076h2.622V26.7H127.84l-10.4-16.35V26.7Zm25.246,0V8.462H133.5V6.076h15.79V8.462h-6.54V26.7Zm11.813,0V6.076h2.681V26.7Zm21.063,0-2.033-5.244h-9.162L159.714,26.7h-2.769l8.16-20.621h2.445L175.74,26.7Zm-10.281-7.63H170l-3.653-9.456ZM178.1,26.7V6.076h2.681V24.281H191V26.7Z" transform="translate(1467 63)" fill="#fff"/>
    <path id="Path_2" data-name="Path 2" d="M2.92,38.566v-27.9H21.676v5.713H9.421v5.241H21.006v5.4H9.421v5.792H22.385v5.753Zm23.918,0v-27.9h6.777V32.695h10.8v5.871Zm20.726,0v-27.9H66.319v5.713H54.065v5.241H65.65v5.4H54.065v5.792H67.029v5.753ZM96.029,34.7a13.278,13.278,0,0,1-4.571,3.369,14.941,14.941,0,0,1-6.265,1.241,16.346,16.346,0,0,1-5.97-1.064,13.782,13.782,0,0,1-7.9-7.684,15.307,15.307,0,0,1-1.143-5.989,15.287,15.287,0,0,1,1.162-6.068,13.5,13.5,0,0,1,3.211-4.63,14.223,14.223,0,0,1,4.807-2.936,17.232,17.232,0,0,1,11.762.02,11.13,11.13,0,0,1,4.63,3.054l-4.571,4.571A5.657,5.657,0,0,0,88.7,16.658a8.233,8.233,0,0,0-3.152-.63,7.983,7.983,0,0,0-3.251.65,7.626,7.626,0,0,0-2.541,1.793,8.167,8.167,0,0,0-1.655,2.7,9.526,9.526,0,0,0-.591,3.408,9.8,9.8,0,0,0,.591,3.467,8.074,8.074,0,0,0,1.635,2.7,7.363,7.363,0,0,0,2.5,1.753,7.956,7.956,0,0,0,3.192.63,7.426,7.426,0,0,0,3.507-.788,6.8,6.8,0,0,0,2.4-2.049Zm14.579-18.283V38.566H103.87V16.421H95.99V10.669h22.5v5.753Zm10.954,22.144v-27.9h6.777v27.9ZM163.172,24.5a15.557,15.557,0,0,1-1.143,6.048,13.771,13.771,0,0,1-3.172,4.689,14.113,14.113,0,0,1-4.827,3.014,17.781,17.781,0,0,1-12.116,0,14.152,14.152,0,0,1-4.807-3.014,13.771,13.771,0,0,1-3.172-4.689,15.557,15.557,0,0,1-1.143-6.048,15.372,15.372,0,0,1,1.143-6.048,13.243,13.243,0,0,1,3.172-4.59,14.131,14.131,0,0,1,4.807-2.916,18.425,18.425,0,0,1,12.116,0,14.094,14.094,0,0,1,4.827,2.916,13.243,13.243,0,0,1,3.172,4.59A15.372,15.372,0,0,1,163.172,24.5Zm-7.211,0a9.572,9.572,0,0,0-.591-3.389,8.074,8.074,0,0,0-1.635-2.7,7.548,7.548,0,0,0-2.522-1.773,7.983,7.983,0,0,0-3.251-.65,7.754,7.754,0,0,0-5.753,2.423,7.669,7.669,0,0,0-1.635,2.7,10.459,10.459,0,0,0,.02,6.876,8.259,8.259,0,0,0,1.635,2.739,7.466,7.466,0,0,0,2.5,1.793,8.354,8.354,0,0,0,6.462,0,7.68,7.68,0,0,0,2.522-1.793,8.086,8.086,0,0,0,1.655-2.739A9.967,9.967,0,0,0,155.961,24.5Zm29.395,14.067-11.23-18.244h-.118l.158,18.244h-6.541v-27.9h7.684l11.19,18.2h.118l-.158-18.2H193v27.9Z" transform="translate(1465 92)" fill="#fff"/>
    <rect id="Rectangle_3" data-name="Rectangle 3" width="190" height="50" rx="6" transform="translate(1468 150)" fill="#003065"/>
    <path id="Five-pointed_star" d="M14.66,1l3.415,9.676H28.321l-7.968,6.261L23.2,26.613,14.66,20.921,6.123,26.613l2.846-9.676L1,10.676H11.245Z" transform="translate(1548.5 136.5)" fill="#fff"/>
    <path id="Five-pointed_star-2" data-name="Five-pointed_star" d="M10.769,1l2.442,6.92h7.327l-5.7,4.477,2.035,6.92-6.106-4.07-6.106,4.07L6.7,12.4,1,7.92H8.327Z" transform="translate(1516.5 139.5)" fill="#fff"/>
    <path id="Five-pointed_star-3" data-name="Five-pointed_star" d="M10.769,1l2.442,6.92h7.327l-5.7,4.477,2.035,6.92-6.106-4.07-6.106,4.07L6.7,12.4,1,7.92H8.327Z" transform="translate(1588.5 140.5)" fill="#fff"/>
    <path id="Path_6" data-name="Path 6" d="M-77.049,0V-11.865h-4.326V-14.7h11.949v2.835h-4.305V0ZM-55.86,0h-3.885l-3.192-5.754h-1.848V0H-68.1l-.042-14.7h5.859A4.9,4.9,0,0,1-58.8-13.482a4.245,4.245,0,0,1,1.3,3.255,4.428,4.428,0,0,1-.557,2.194,4.149,4.149,0,0,1-1.564,1.586Zm-8.925-11.865v3.276h1.932a2.338,2.338,0,0,0,1.5-.431,1.462,1.462,0,0,0,.535-1.207,1.462,1.462,0,0,0-.535-1.208,2.338,2.338,0,0,0-1.5-.43ZM-44.667,0l-1.071-3.024h-5.25L-52.059,0H-55.5l5.565-14.7h3.129L-41.244,0ZM-49.98-5.8h3.234l-1.617-4.557ZM-39.963,0V-14.7h3.318V0ZM-34,0V-14.7h3.3l5.712,9.45V-14.7H-21.9V0h-3.3l-5.712-9.45V0Zm14.742,0V-14.7h3.318V0Zm5.964,0V-14.7H-10l5.712,9.45V-14.7H-1.2V0h-3.3l-5.712-9.45V0ZM8.064.168A7.241,7.241,0,0,1,2.929-1.806,7.219,7.219,0,0,1,.819-7.35,7.091,7.091,0,0,1,3-12.894a7.64,7.64,0,0,1,5.313-1.974,7.42,7.42,0,0,1,4.547,1.333,5.638,5.638,0,0,1,2.215,3.686L11.8-9.177a3.422,3.422,0,0,0-1.208-2.079,3.56,3.56,0,0,0-2.32-.777,3.86,3.86,0,0,0-3,1.249A4.92,4.92,0,0,0,4.137-7.35,4.88,4.88,0,0,0,5.271-3.927,3.826,3.826,0,0,0,8.232-2.688a3.873,3.873,0,0,0,2.415-.735A2.761,2.761,0,0,0,11.76-5.355H7.77V-8h7.056V0H11.8V-1.533A3.177,3.177,0,0,1,10.321-.294,5.4,5.4,0,0,1,8.064.168ZM25.515,0,21.336-14.7h3.4l2.5,10.71L29.8-14.7h3.843L36.225-4.011l2.5-10.689h3.423L38.01,0H34.482l-2.73-10.227L28.98,0ZM43.764,0V-14.7h10.1v2.835H47.082v2.688h5.376v2.856H47.082v3.465H54.1V0ZM56.091,0V-14.7h10.1v2.835H59.409v2.688h5.376v2.856H59.409v3.465h7.014V0ZM77.406,0,73.164-6.405,71.736-4.893V0H68.418V-14.7h3.318v5.376L76.755-14.7H81.1L75.474-8.8,81.585,0Z" transform="translate(1563 182)" fill="#fff"/>
    <g id="Logo_IEX-Group_RGB_Diapositief" transform="translate(1668.388 143.055)">
      <rect id="Rectangle_13" data-name="Rectangle 13" width="8.068" height="30.194" transform="translate(15 19.275)" fill="#fff"/>
      <path id="Path_7" data-name="Path 7" d="M71.753,38.753V31.6H51V61.794H71.753V54.682H59.068V50.19h8.983V43.37H59.068V38.753Z" transform="translate(-21.028 -12.325)" fill="#fff"/>
      <path id="Path_8" data-name="Path 8" d="M121.2,31.6h-9.4l9.441,14.806,4.7-7.361Z" transform="translate(-56.541 -12.325)" fill="#fff"/>
      <path id="Path_9" data-name="Path 9" d="M145.8,74.6l5.074,7.985h9.4L150.5,67.2Z" transform="translate(-76.401 -33.119)" fill="#fff"/>
      <g id="Group_7" data-name="Group 7" transform="translate(49.311 10.5)">
        <path id="Path_10" data-name="Path 10" d="M165.513,10.5h-9.4L145.8,26.72l1.165,1.83,3.535,5.531h0Z" transform="translate(-125.712 -10.5)" fill="#fff"/>
        <path id="Path_11" data-name="Path 11" d="M97.5,91.363h9.4L117.588,74.6l-1.705-2.662L112.888,67.2Z" transform="translate(-97.5 -43.619)" fill="#fff"/>
      </g>
      <path id="Path_12" data-name="Path 12" d="M139.2,49.5h0l-4.7,7.361,4.7,7.4,4.7-7.4Z" transform="translate(-69.801 -22.78)" fill="#fff" stroke="#fff" stroke-width="1"/>
    </g>
    <path id="logo" d="M14.321,38.526V99.57H2.56V38.526ZM52.245,37h-.31a32.048,32.048,0,0,0,.305,64.066c9.029,0,18.313-3.668,24.3-9.579v-27.1H51.11V75.661H65.1V85.6l-.153.1a23.593,23.593,0,0,1-12.717,3.825,20.486,20.486,0,0,1-1.119-40.94,20.777,20.777,0,0,1,15.526,6.186,6.748,6.748,0,0,1,.509.565l8.139-8.139-.509-.565A30.893,30.893,0,0,0,52.245,37Z" transform="translate(1680.828 32.249)" fill="#fff"/>
    <line id="Line_1" data-name="Line 1" y2="134" transform="translate(1670.5 69.5)" fill="none" stroke="#fff" stroke-width="1"/>
  </g>
</svg>
