<svg xmlns="http://www.w3.org/2000/svg" xmlns:xlink="http://www.w3.org/1999/xlink" width="190.443" height="166.731" viewBox="0 0 190.443 166.731">
  <g id="logo" transform="translate(-1561.92 -85.84)">
    <path id="Path_1" data-name="Path 1" d="M1.46,26.7V6.076H9.3a6.861,6.861,0,0,1,4.8,1.635,5.59,5.59,0,0,1,1.8,4.345A5.59,5.59,0,0,1,14.1,16.4a6.861,6.861,0,0,1-4.8,1.635H4.141V26.7ZM4.141,15.62H9.208a4.133,4.133,0,0,0,2.872-.943,3.349,3.349,0,0,0,1.046-2.622A3.4,3.4,0,0,0,12.08,9.419a4.093,4.093,0,0,0-2.872-.957H4.141ZM34.808,26.7H31.744l-5.715-9.191H21.463V26.7H18.782V6.076h7.424a6.861,6.861,0,0,1,4.713,1.561,5.269,5.269,0,0,1,1.768,4.154,5.44,5.44,0,0,1-1.016,3.285,5.634,5.634,0,0,1-2.813,2.018ZM21.463,8.462V15.09h4.448a4.572,4.572,0,0,0,2.975-.869,2.967,2.967,0,0,0,1.061-2.43,3.01,3.01,0,0,0-1.061-2.445,4.519,4.519,0,0,0-2.975-.884ZM37.371,26.7V6.076H50.362V8.462H40.051V14.53h8.366v2.416H40.051v7.335H50.686V26.7Zm23.243.236a7.976,7.976,0,0,1-5.155-1.753A7.319,7.319,0,0,1,52.778,20.6l2.533-.825a5.393,5.393,0,0,0,1.8,3.461,5.244,5.244,0,0,0,3.565,1.311,5.609,5.609,0,0,0,3.388-.928,3.038,3.038,0,0,0,.4-4.6,5.129,5.129,0,0,0-2.165-1.267q-1.3-.4-2.828-.9t-2.828-1.031a5.015,5.015,0,0,1-2.165-1.709,4.729,4.729,0,0,1-.869-2.887,4.7,4.7,0,0,1,1.944-3.889,7.956,7.956,0,0,1,5.008-1.5,8.223,8.223,0,0,1,4.831,1.4,5.467,5.467,0,0,1,2.386,3.7l-2.445.943a4.309,4.309,0,0,0-1.576-2.666,5.007,5.007,0,0,0-3.2-.987,5.26,5.26,0,0,0-3.108.81,2.559,2.559,0,0,0-1.134,2.195,2.163,2.163,0,0,0,.648,1.591,4.293,4.293,0,0,0,1.694,1q1.046.354,2.3.678t2.5.766a11.3,11.3,0,0,1,2.3,1.1,4.9,4.9,0,0,1,1.694,1.871,6.026,6.026,0,0,1,.648,2.887,5.072,5.072,0,0,1-2.047,4.213A8.62,8.62,0,0,1,60.614,26.933ZM71.337,26.7V6.076h2.681V26.7Zm6.952,0V6.076h6.128a10.424,10.424,0,0,1,7.409,2.74,9.857,9.857,0,0,1,2.931,7.571,9.857,9.857,0,0,1-2.931,7.571,10.424,10.424,0,0,1-7.409,2.74Zm2.651-2.416h3.388a7.869,7.869,0,0,0,5.465-1.974q2.195-1.974,2.195-5.921a8.645,8.645,0,0,0-1.1-4.522A6.408,6.408,0,0,0,88.1,9.243a8.84,8.84,0,0,0-3.771-.781H80.941ZM98.115,26.7V6.076h12.991V8.462H100.8V14.53h8.366v2.416H100.8v7.335h10.635V26.7Zm16.7,0V6.076h2.975l10.4,16.409V6.076h2.622V26.7H127.84l-10.4-16.35V26.7Zm25.246,0V8.462H133.5V6.076h15.79V8.462h-6.54V26.7Zm11.813,0V6.076h2.681V26.7Zm21.063,0-2.033-5.244h-9.162L159.714,26.7h-2.769l8.16-20.621h2.445L175.74,26.7Zm-10.281-7.63H170l-3.653-9.456ZM178.1,26.7V6.076h2.681V24.281H191V26.7Z" transform="translate(1561 80)" fill="#fff"/>
    <path id="Path_2" data-name="Path 2" d="M2.92,38.566v-27.9H21.676v5.713H9.421v5.241H21.006v5.4H9.421v5.792H22.385v5.753Zm23.918,0v-27.9h6.777V32.695h10.8v5.871Zm20.726,0v-27.9H66.319v5.713H54.065v5.241H65.65v5.4H54.065v5.792H67.029v5.753ZM96.029,34.7a13.278,13.278,0,0,1-4.571,3.369,14.941,14.941,0,0,1-6.265,1.241,16.346,16.346,0,0,1-5.97-1.064,13.782,13.782,0,0,1-7.9-7.684,15.307,15.307,0,0,1-1.143-5.989,15.287,15.287,0,0,1,1.162-6.068,13.5,13.5,0,0,1,3.211-4.63,14.223,14.223,0,0,1,4.807-2.936,17.232,17.232,0,0,1,11.762.02,11.13,11.13,0,0,1,4.63,3.054l-4.571,4.571A5.657,5.657,0,0,0,88.7,16.658a8.233,8.233,0,0,0-3.152-.63,7.983,7.983,0,0,0-3.251.65,7.626,7.626,0,0,0-2.541,1.793,8.167,8.167,0,0,0-1.655,2.7,9.526,9.526,0,0,0-.591,3.408,9.8,9.8,0,0,0,.591,3.467,8.074,8.074,0,0,0,1.635,2.7,7.363,7.363,0,0,0,2.5,1.753,7.956,7.956,0,0,0,3.192.63,7.426,7.426,0,0,0,3.507-.788,6.8,6.8,0,0,0,2.4-2.049Zm14.579-18.283V38.566H103.87V16.421H95.99V10.669h22.5v5.753Zm10.954,22.144v-27.9h6.777v27.9ZM163.172,24.5a15.557,15.557,0,0,1-1.143,6.048,13.771,13.771,0,0,1-3.172,4.689,14.113,14.113,0,0,1-4.827,3.014,17.781,17.781,0,0,1-12.116,0,14.152,14.152,0,0,1-4.807-3.014,13.771,13.771,0,0,1-3.172-4.689,15.557,15.557,0,0,1-1.143-6.048,15.372,15.372,0,0,1,1.143-6.048,13.243,13.243,0,0,1,3.172-4.59,14.131,14.131,0,0,1,4.807-2.916,18.425,18.425,0,0,1,12.116,0,14.094,14.094,0,0,1,4.827,2.916,13.243,13.243,0,0,1,3.172,4.59A15.372,15.372,0,0,1,163.172,24.5Zm-7.211,0a9.572,9.572,0,0,0-.591-3.389,8.074,8.074,0,0,0-1.635-2.7,7.548,7.548,0,0,0-2.522-1.773,7.983,7.983,0,0,0-3.251-.65,7.754,7.754,0,0,0-5.753,2.423,7.669,7.669,0,0,0-1.635,2.7,10.459,10.459,0,0,0,.02,6.876,8.259,8.259,0,0,0,1.635,2.739,7.466,7.466,0,0,0,2.5,1.793,8.354,8.354,0,0,0,6.462,0,7.68,7.68,0,0,0,2.522-1.793,8.086,8.086,0,0,0,1.655-2.739A9.967,9.967,0,0,0,155.961,24.5Zm29.395,14.067-11.23-18.244h-.118l.158,18.244h-6.541v-27.9h7.684l11.19,18.2h.118l-.158-18.2H193v27.9Z" transform="translate(1559 109)" fill="#fff"/>
    <rect id="Rectangle_3" data-name="Rectangle 3" width="190" height="50" rx="6" transform="translate(1562 167)" fill="#e01b1c"/>
    <path id="Five-pointed_star" d="M14.66,1l3.415,9.676H28.321l-7.968,6.261L23.2,26.613,14.66,20.921,6.123,26.613l2.846-9.676L1,10.676H11.245Z" transform="translate(1642.5 153.5)" fill="#fff"/>
    <path id="Five-pointed_star-2" data-name="Five-pointed_star" d="M10.769,1l2.442,6.92h7.327l-5.7,4.477,2.035,6.92-6.106-4.07-6.106,4.07L6.7,12.4,1,7.92H8.327Z" transform="translate(1610.5 156.5)" fill="#fff"/>
    <path id="Five-pointed_star-3" data-name="Five-pointed_star" d="M10.769,1l2.442,6.92h7.327l-5.7,4.477,2.035,6.92-6.106-4.07-6.106,4.07L6.7,12.4,1,7.92H8.327Z" transform="translate(1682.5 157.5)" fill="#fff"/>
    <path id="Path_4" data-name="Path 4" d="M1.46,22.608V6.029h6.3a5.516,5.516,0,0,1,3.86,1.314,4.494,4.494,0,0,1,1.445,3.493,4.494,4.494,0,0,1-1.445,3.493,5.516,5.516,0,0,1-3.86,1.314H3.615v6.963ZM3.615,13.7H7.689A3.323,3.323,0,0,0,10,12.945a2.693,2.693,0,0,0,.841-2.108A2.73,2.73,0,0,0,10,8.718a3.29,3.29,0,0,0-2.309-.77H3.615ZM22.8,22.8a7.8,7.8,0,0,1-5.862-2.392,8.4,8.4,0,0,1-2.309-6.087,8.4,8.4,0,0,1,2.309-6.087A7.8,7.8,0,0,1,22.8,5.84a7.77,7.77,0,0,1,5.838,2.392,8.4,8.4,0,0,1,2.309,6.087,8.4,8.4,0,0,1-2.309,6.087A7.77,7.77,0,0,1,22.8,22.8Zm-.024-1.942a5.54,5.54,0,0,0,4.287-1.847,6.7,6.7,0,0,0,1.682-4.689,6.743,6.743,0,0,0-1.682-4.7,5.524,5.524,0,0,0-4.287-1.859,5.5,5.5,0,0,0-4.263,1.859,6.743,6.743,0,0,0-1.682,4.7,6.7,6.7,0,0,0,1.682,4.689A5.514,5.514,0,0,0,22.775,20.855ZM36.8,22.608,31.751,6.029h2.226l3.955,14.092,4-14.092h2.25l3.979,14.092L52.119,6.029h2.226L49.325,22.608H47.051L43.072,9.25,39.046,22.608Zm19.7,0V6.029H66.945V7.948H58.656v4.879h6.726v1.942H58.656v5.9h8.55v1.942Zm26.313,0H80.35l-4.595-7.389H72.085v7.389H69.929V6.029H75.9a5.516,5.516,0,0,1,3.789,1.255,4.236,4.236,0,0,1,1.421,3.339,4.373,4.373,0,0,1-.817,2.641,4.53,4.53,0,0,1-2.262,1.622ZM72.085,7.948v5.329h3.576a3.676,3.676,0,0,0,2.392-.7,2.385,2.385,0,0,0,.853-1.954,2.42,2.42,0,0,0-.853-1.966,3.633,3.633,0,0,0-2.392-.711Zm12.789,14.66V6.029H95.318V7.948H87.029v4.879h6.726v1.942H87.029v5.9h8.55v1.942Zm13.429,0V6.029h4.926a8.38,8.38,0,0,1,5.956,2.2,7.924,7.924,0,0,1,2.357,6.087,7.924,7.924,0,0,1-2.357,6.087,8.38,8.38,0,0,1-5.956,2.2Zm2.132-1.942h2.724a6.326,6.326,0,0,0,4.393-1.587,6.078,6.078,0,0,0,1.764-4.76,6.95,6.95,0,0,0-.888-3.635,5.151,5.151,0,0,0-2.238-2.108,7.107,7.107,0,0,0-3.032-.628h-2.724Zm19.515,1.942V6.029h5.992a5.637,5.637,0,0,1,3.718,1.125,3.861,3.861,0,0,1,1.35,3.138,3.306,3.306,0,0,1-.639,1.978,3.624,3.624,0,0,1-1.539,1.267,4.081,4.081,0,0,1,2.913,4.239,4.506,4.506,0,0,1-1.445,3.541,5.8,5.8,0,0,1-4,1.291Zm2.132-9.758h3.766q3.031,0,3.031-2.487t-3.031-2.487h-3.766Zm0,7.816h3.86q3.647,0,3.647-2.937,0-2.984-3.647-2.984h-3.86Zm15.75,1.942V15.669L132,6.029h2.439l4.476,7.579,4.5-7.579h2.439l-5.85,9.639v6.939ZM146.4,10.671h2.321v2.463H146.4Zm0,9.473h2.321v2.463H146.4Z" transform="translate(1560.54 224.016)" fill="#fff"/>
    <a xlink:href="https://www.ig.com/nl/" target="_blank"><path id="logo-2" data-name="logo" d="M7.943,37.7V65.637H2.56V37.7ZM25.3,37h-.142a14.668,14.668,0,0,0,.14,29.322,16.288,16.288,0,0,0,11.12-4.384v-12.4H24.781v5.159h6.4v4.549l-.07.044a10.8,10.8,0,0,1-5.821,1.751A9.376,9.376,0,0,1,24.781,42.3a9.509,9.509,0,0,1,7.106,2.831,3.089,3.089,0,0,1,.233.258l3.725-3.725-.233-.258A14.139,14.139,0,0,0,25.3,37Z" transform="translate(1715.945 186.249)" fill="#fff"/></a>
    <path id="Path_6" data-name="Path 6" d="M-77.049,0V-11.865h-4.326V-14.7h11.949v2.835h-4.305V0ZM-55.86,0h-3.885l-3.192-5.754h-1.848V0H-68.1l-.042-14.7h5.859A4.9,4.9,0,0,1-58.8-13.482a4.245,4.245,0,0,1,1.3,3.255,4.428,4.428,0,0,1-.557,2.194,4.149,4.149,0,0,1-1.564,1.586Zm-8.925-11.865v3.276h1.932a2.338,2.338,0,0,0,1.5-.431,1.462,1.462,0,0,0,.535-1.207,1.462,1.462,0,0,0-.535-1.208,2.338,2.338,0,0,0-1.5-.43ZM-44.667,0l-1.071-3.024h-5.25L-52.059,0H-55.5l5.565-14.7h3.129L-41.244,0ZM-49.98-5.8h3.234l-1.617-4.557ZM-39.963,0V-14.7h3.318V0ZM-34,0V-14.7h3.3l5.712,9.45V-14.7H-21.9V0h-3.3l-5.712-9.45V0Zm14.742,0V-14.7h3.318V0Zm5.964,0V-14.7H-10l5.712,9.45V-14.7H-1.2V0h-3.3l-5.712-9.45V0ZM8.064.168A7.241,7.241,0,0,1,2.929-1.806,7.219,7.219,0,0,1,.819-7.35,7.091,7.091,0,0,1,3-12.894a7.64,7.64,0,0,1,5.313-1.974,7.42,7.42,0,0,1,4.547,1.333,5.638,5.638,0,0,1,2.215,3.686L11.8-9.177a3.422,3.422,0,0,0-1.208-2.079,3.56,3.56,0,0,0-2.32-.777,3.86,3.86,0,0,0-3,1.249A4.92,4.92,0,0,0,4.137-7.35,4.88,4.88,0,0,0,5.271-3.927,3.826,3.826,0,0,0,8.232-2.688a3.873,3.873,0,0,0,2.415-.735A2.761,2.761,0,0,0,11.76-5.355H7.77V-8h7.056V0H11.8V-1.533A3.177,3.177,0,0,1,10.321-.294,5.4,5.4,0,0,1,8.064.168ZM25.515,0,21.336-14.7h3.4l2.5,10.71L29.8-14.7h3.843L36.225-4.011l2.5-10.689h3.423L38.01,0H34.482l-2.73-10.227L28.98,0ZM43.764,0V-14.7h10.1v2.835H47.082v2.688h5.376v2.856H47.082v3.465H54.1V0ZM56.091,0V-14.7h10.1v2.835H59.409v2.688h5.376v2.856H59.409v3.465h7.014V0ZM77.406,0,73.164-6.405,71.736-4.893V0H68.418V-14.7h3.318v5.376L76.755-14.7H81.1L75.474-8.8,81.585,0Z" transform="translate(1657 199)" fill="#fff"/>
  </g>
</svg>
