<svg xmlns="http://www.w3.org/2000/svg" width="805.926" height="402.6" viewBox="0 0 805.926 402.6">
  <g id="hologram-map" transform="translate(3.325 1)">
    <rect id="SEA" width="802" height="402" transform="translate(-1 -1)" opacity="0.2"/>
    <g id="Group_2" data-name="Group 2">
      <path id="Path_6" data-name="Path 6" d="M802.4,56.2a12.215,12.215,0,0,1-8.2.2c.2.9.5,1.5,1.5,1.4a1.352,1.352,0,0,1,1.7,1.2c.2,1,1.6,1.3,1.9,2.3-.5.9-1.3.8-2.1.6a12.816,12.816,0,0,1-2.7-.5c-.2-.1-.4-.2-.5-.1-4,2.1-8.7,2.2-12.6,4.6-.9.5-2.1.3-2.4,1.8-3.1-2.9-5.9-1.4-8.9-.3a.52.52,0,0,1-.2-.4,1.953,1.953,0,0,0-.1-.7,5.456,5.456,0,0,0-2.8,1.5c-2-1-2.3-.9-3.7,1.1a5.018,5.018,0,0,1-1.5,1.4c-.5.3-1.2.6-1.1,1.4.7.8,1.8,0,2.7.7-.5.7-2,1.6,0,2.3a.524.524,0,0,1,.2.8c-.2.5-.8.7-1.1.4-1.2-.9-1.6.3-2.2.8-.8.8.1,1.4.6,1.9-.4.9-1.1.8-1.8.8a4.134,4.134,0,0,0-1.9.2c-.9.5-1.8,1-.8,2.3-.8.2-1.5.4-2.2.6-.4.1-.9.2-1,.8-.3,2.3-2.3,2.7-4,3.9-1.1-3.2-2.3-6.1-2.7-9.2-.2-1.6.4-2.7,1.6-4.1,1.6-1.7,3.6-2,5.4-3.1,2.2-1.4,4.4-2.7,6.6-4.1a7.448,7.448,0,0,1,2.4-1.1,2.772,2.772,0,0,0,2.4-2.1c.2-.8.4-2,1.9-1.9-1.7-.3-3.1-.4-4.2,1.3-.5.8-1.9,1-2.8,1.5l-2.7,1.2c-.5-.8-1.6-1.3-.3-2.5-1.8.5-3.4-.5-5-.1-1.3.3-2.6.4-3.6,1.5a6.531,6.531,0,0,1-3.1,1.9,2.827,2.827,0,0,0-1.8,1.4c.3.9,1.2.3,1.8.9-2.7.8-5.5.3-8.2,1.1,0-1,.9-.5,1-1.1-.1-.5-.7-.6-1-.6a7.058,7.058,0,0,1-3.8-.5.614.614,0,0,0-.6.1c-1.7,1.6-3.8.6-5.7.7-.8,0-1.3.5-1.9.6-3-.8-5.9-1.1-8.7.4-4.9,2.7-9.4,6.2-14.5,8.5a.857.857,0,0,0-.7.8c.9,1,2.1.1,3.1.3.6.5-.3,1.1.2,1.8.6.2,1.5-.7,2.2.4.2.3,1.2.1,1.8-.3a3.113,3.113,0,0,1,4.3-.1c1.1.9,1.3,1.3,2.3,3.9a5.685,5.685,0,0,0-1.9,4.8,4.039,4.039,0,0,1-2.1,4.1c-.8.4-1.2,1.4-1.7,2.1a33.842,33.842,0,0,1-5.4,5.3c-1.7,1.5-3.1,3.5-5.6,4.1a3.856,3.856,0,0,1-2.8-.2,2.568,2.568,0,0,0-3.1.4c-.7.6-1.5,1.1-2.2,1.6a1.764,1.764,0,0,0-.8.9c-.2,2.4-2.1,3-3.9,3.7a1.82,1.82,0,0,0-1.3,1.1c-.2.8.4,1,.9,1.3a8.165,8.165,0,0,1,3.6,6.7,1.638,1.638,0,0,1-1.3,1.7,16.375,16.375,0,0,0-5.4,1.8c-.2-1.2-.5-2.1.1-3.1.5-.8-.3-1.7-.7-2.4.1-.7,1-.2,1.2-.7a2.041,2.041,0,0,0-2.6-1.3c-.9.2-1.2-.3-1.6-.6-.5-.5-.1-.9.4-1.3.7-.5-.1-1.4.7-1.9-3.5-1.7-6.2-.5-8.9,1.3a3.289,3.289,0,0,1,1.7-3.5c-1.3-1.4-2-1.6-3.1-.4a3.412,3.412,0,0,1-1.8,1.1,2.068,2.068,0,0,0-1.4,1c-.7,1.3-1.8,1.3-3,.9-.6.3-.6.9-.9,1.4.7,1.3,2,.9,2.9,1.3.4.5,0,1.2.4,1.8.9.5,1.6,0,2.2-.6a1.866,1.866,0,0,1,2.5-.3c.7.5,1.4.2,2.1.3a.713.713,0,0,1,.7.8c-.1.4-.2.6-.6.6-2.3-.1-3.8,1.4-5.2,2.8-.4.5-1.1.7-1.5,1.6a7.44,7.44,0,0,1,3.9,4.9c.2.7,1.1,1.2,2,1.7a2.159,2.159,0,0,0,0,2.2c-.6.6-1.5.4-2.1,1.2.9.1,1.4.7,2.2,1.1a17.65,17.65,0,0,1-.4,2c-.3.7-.1,1.7-1.3,1.9-.4.1-.7.8-.9,1.2a2.292,2.292,0,0,1-1.2,1.5,2.121,2.121,0,0,0-1.2,1.9,4.327,4.327,0,0,1-2,2.9c-.8.5-1.3,1.3-2,1.7-2.2,1.4-4.3,3.6-7.3,2.9-.3-.1-.6.2-.9.2a3.091,3.091,0,0,1-.8-.2,2.913,2.913,0,0,1-2.9,2c-1.2.1-2.2.6-3.4.8s-1.7.8-.7,2c-1.7.4-2,0-1.7-2.3-1.6,0-3.2-.6-4.6.5-1.8,1.5-3.9,2.8-4.4,5.3a79.672,79.672,0,0,0,5.5,6.1,7.791,7.791,0,0,1,2.4,7.9,6.151,6.151,0,0,0-.1,1.4c0,.4.1.9-.3,1.1-1.4,1-2.6,2.4-4.6,2.3-.4,2.6-3.1,2.7-4.6,4.6-.4-1.5.3-2.6.1-3.8a13.551,13.551,0,0,1-2.1-1c-.8-.5-1.9-.8-2.3-2a3.226,3.226,0,0,0-3.5-2.6c-1.3.1-1.1-1-1-1.7-1.2-.4-2-.4-2,1.1a9.775,9.775,0,0,1-1.3,4.4,9.016,9.016,0,0,0-.6,2.2c-.1.5,0,1.2.5,1.3,1.8.3,1.8,1.8,2.1,3.1a2.544,2.544,0,0,0,2.1,2.3,7.9,7.9,0,0,1,3.6,2.8,4.377,4.377,0,0,1,1.2,4.1,3.045,3.045,0,0,0,.8,3.1,4.106,4.106,0,0,1,.9,2,2.719,2.719,0,0,1-2.6-.4,2.185,2.185,0,0,0-.5-.3c-3.4-1.4-4.7-4.4-5.3-7.7-.5-2.4-2-4-3.1-5.9a1.64,1.64,0,0,0-1.4-.6,1.3,1.3,0,0,1-.2-1.3c.9-1.7.5-3.6,1-5.3a6.836,6.836,0,0,0-.7-5,10.477,10.477,0,0,1-1.5-5.2c0-1.4-1.1-2.1-1.6-3.3,0,2.3-2.7,1.8-3.2,3.4-1.1.1-1.8-1.2-3.1-.5.6-2.7,1.8-5.3-1.2-7.1.4-.4.5-1-.1-1.3a7.872,7.872,0,0,1-4.2-6c-.7-.6-1.5.1-2-.5-.3.9-.1,1.9-1.8,1.8-1.2,0-2.5.4-3.8.3a2.859,2.859,0,0,0-2.8,2.2,3.2,3.2,0,0,1-2.3,2.2,3.839,3.839,0,0,0-2.4,1.5,15.9,15.9,0,0,1-4.6,3.9c-.2.1-.6.2-.6.4-.9,1.8-2.7,2.3-4.3,3.1a1.961,1.961,0,0,0-.9,2,10.144,10.144,0,0,0,.2,2.5c.5,1.4-.1,2.4-.5,3.5a4.136,4.136,0,0,0-.5,1.9c.1,1.1.4,2.2-1.1,2.8-.4.1-.6,1-.2,1.8-2.1-.2-2,2.5-3.9,2.6a4.264,4.264,0,0,1-2-2.7,18.033,18.033,0,0,0-2.5-5.7,13.043,13.043,0,0,1-1-2.5,19.6,19.6,0,0,0-1.9-4.5c-2-3.4-2.3-7.3-2.9-11-.2-.9,1.3-1.5.3-2.5-.7-.6-.1-1.7-.7-2.3-.5,0-.8.2-.7.5.5,1.2-.3,1.7-1.1,2.1-1,.4-2,1-3.1.1a32.22,32.22,0,0,1-3.2-3.2c1-.3,2.2.3,3.2-1-2.7.3-4.3-1.4-6.1-2.6a7.936,7.936,0,0,1-2-2.7c-.4-.6-.7-.8-1.4-.6-3.3.7-6.7.1-10,.8a1.672,1.672,0,0,1-1.2-.1c-2-1-4.2-.5-6.3-1-1.3-.3-2.3-.6-2.8-2-.6-1.7-1.6-2.2-3.1-1.2-2.8,1.8-4.7.3-6.8-1.2-.2-.2-.4-.4-.6-.4-2-.2-2.6-1.8-3.3-3.2-.5-1.1-.9-2.2-2.4-2-.6.1-.7-.7-1.3-.9a2.354,2.354,0,0,1-1.8,1,.731.731,0,0,0-.7,1.1c1.1,1.5,1.3,3.7,3,4.8.5.4,1.2.5,1.7,1.1-.7,1.9,1,3.1,1.6,4.8.3-1.1-.2-2.3,1-3.3,1.2.7.8,1.9.6,2.9-.2,1.4.1,1.7,1.4,1.6.1,0,.1-.1.2-.1,4.2,1.2,6.3-2.3,9.1-4.6-.2,3.7,1.7,5.2,4.8,5.9,1.3.3,1.7,1.9,2.9,2.4-.8,2-2.8,4.3-4.2,4.8a5.229,5.229,0,0,0-.2,2.5c-1.1.6-2.6.6-2.9,2.2-.1.3-.5.4-.8.4a1.629,1.629,0,0,0-2,1.6c-.1.5-.7.7-1.3.7-2.4-.1-4.5.3-5.7,2.8-.3.7-1.2.8-1.8,1-1.8.7-3.7,1.4-5.5,2.2s-3.7,2.1-6,1.9a1.537,1.537,0,0,0-1.4.6,5.023,5.023,0,0,1-2.7,1.1,1.661,1.661,0,0,1-2.1-1.5c-.2-2.3-1.5-4.4-1.3-6.8.1-1-.7-1.9-1.5-2.7-.4-.4-1-.7-1.2-1.3-1-2.2-2-4.3-4.4-5.5a2.8,2.8,0,0,1-1.1-2.6,5.846,5.846,0,0,0-3.3-5.5c-.5-.2-1-.5-.9-1.2a3.553,3.553,0,0,0-1.2-2.6c-1.4-1.6-2.2-3.7-4.1-5,.1-.7.2-1.4.4-2.4-1.4.8-.9,2.4-1.8,3.2-.9.1-1.1-.9-1.8-1.1a10.488,10.488,0,0,0-2.1-3.4,4.063,4.063,0,0,0,1.8,3.8,42.1,42.1,0,0,0,4.9,8.8.1.1,0,0,0,.1.1c-.5,2.2,1.5,3,2.5,4.3a5.782,5.782,0,0,1,1.2,3.6c-.1,2.1.2,4,2.5,5a2.378,2.378,0,0,1,1.2,1.7l.6,2.1c.3,1.9,1.6,2.9,3.3,3.8a12.059,12.059,0,0,1,4,3.5c.7,1,2,1.3,2.4,2.6-.2.5-.9.6-1.3.9a.756.756,0,0,1,.1.4,2.7,2.7,0,0,1,2,1.4,2.02,2.02,0,0,0,3,.8,3.814,3.814,0,0,1,2.6-.4c1.3.2,2.3-1.1,3.7-1a16.412,16.412,0,0,1,2.3-.2,4.359,4.359,0,0,0,2.9-.9c.6-.5,1.3-.7,1.9,0a13.334,13.334,0,0,1-1,5.4c-1.9,3.3-3.4,6.8-5.6,9.9a24.858,24.858,0,0,1-8.1,7.7c-2.5,1.4-4.3,3.7-6,6a6.491,6.491,0,0,1-1.8,1.9,6.113,6.113,0,0,0-2,2.4,14.833,14.833,0,0,1-2,3.7c-1.1,1.2-.9,2.7.2,4a1.486,1.486,0,0,1,.3,1.4,11.893,11.893,0,0,0,.2,4.2,2.471,2.471,0,0,0,1.4,2,1.612,1.612,0,0,1,.9,1.8,17.97,17.97,0,0,0,.2,7.3,4,4,0,0,1-.9,3.6,8.049,8.049,0,0,1-4.5,3.2,8.22,8.22,0,0,0-4,2.6,12.109,12.109,0,0,1-3,2.5c-.7.4-1.2,1.2-.7,1.8,1,1.3.8,2.9,1.4,4.3,1.2,2.7-.1,5-2.9,6a5.415,5.415,0,0,0-3.3,2.1,2.416,2.416,0,0,1,.5,2.9c-.6,1.5-.8,3.2-2.5,4.2a6.458,6.458,0,0,0-1.8,2.2c-2.1,3.2-5.1,5.5-8.2,7.6-1.3.9-3,.5-4.3,1.2-1.6.8-3.1-.1-4.7,0a30.642,30.642,0,0,0-6.8,1.6,1.076,1.076,0,0,1-1.4-.3c-.5-.8-1.4-.8-2.2-1.2a4.122,4.122,0,0,0-1-2.7c1.4-1,.9-2.3.2-3.3-1.9-2.7-2.6-6.1-5.3-8.3-1.3-1.1-1.5-3.1-1.6-4.7-.1-1.5-.7-2.9-.9-4.4-.1-.7-.5-1.3-.1-2.1.3-.6-.1-1.1-.5-1.6-2-2.5-3.1-5.7-5-8.4-1.2-1.7-.7-3.8-.2-5.6.3-1.2.7-2.3.9-3.5a5.685,5.685,0,0,1,1.8-3.4c1.7-1.8,2.1-3.7.8-5.8-.6-1-1.2-1.8-.2-3,.4-.5.1-1.1-.2-1.6a16.316,16.316,0,0,1-.9-1.9,35.177,35.177,0,0,1-1.8-4.5c-.4-1.7-2-2.6-3.2-3.9a17.317,17.317,0,0,1-3.8-5.6,6.137,6.137,0,0,0,1.3-4.7c-.1-1,.9-2,.7-3.2-.2-1.3.1-2.7-1.5-3.2a1.057,1.057,0,0,1-.6-.7c-.1-.5-.8-.7-.9-.6-1,1.1-2.3.4-3.5.7-2.1.6-2.9.1-3.5-2.1a3.962,3.962,0,0,0-4.1-2.4c-.8.1-1.7.1-2.5.2-3.1.6-5.9,2-8.8,3.1a2.263,2.263,0,0,1-1.8.1,9.323,9.323,0,0,0-8.6.1c-2.6,1.5-4.7.7-6.5-.8-1.8-1.6-3.9-2.7-5.8-4.2a21.975,21.975,0,0,0-2.3-2c-.4-.2-.4-.6-.5-1.1a4.68,4.68,0,0,0-2.4-3.7c-1.1-.6-1.5-1.8-2.6-2.4-.6-.4.3-.9,0-1.4-3,.1-4-1.5-2.8-3.9a5.6,5.6,0,0,0-1.8-2.6c2.2-1.8,2.2-4.4,2.9-6.8a2.845,2.845,0,0,0,0-1.3,5.3,5.3,0,0,1-.5-3.7c.2-.5-.3-1.1-.7-1.3-1.6-.7-1.1-1.9-.4-2.7,1.5-1.8,1.8-4.4,3.9-5.7.5-2.3,2-3.9,3.5-5.5.9-1,1.4-2,2.9-2.4,2.1-.5,3.6-2,5-3.6a1.546,1.546,0,0,0,.3-2c-.6-1-.2-1.7.4-2.5a3.746,3.746,0,0,0,.7-1.2,2.893,2.893,0,0,1,2.2-2.5,6.9,6.9,0,0,0,5-4.9,3.328,3.328,0,0,1,.6-1,3.539,3.539,0,0,1-1.6-1.6,1.792,1.792,0,0,0-2-.9,8.682,8.682,0,0,1-3.2.1l-.3-.3a10.555,10.555,0,0,0,.2-2.5,5.108,5.108,0,0,1-1.6-1.1,9.879,9.879,0,0,0,1-9.6c1.3-.3,2.5-1.3,4.5-1.2a50.8,50.8,0,0,0,8.7.5,3.055,3.055,0,0,1,1.9.2c1.3.5,1.8-.1,2-1.3.2-1,.3-2,.5-3.1s.4-2.2-1.2-2.5c-.2,0-.3-.2-.4-.4-.8-1.9-2.6-2.1-4.3-2.5-1.2-.3-1.3-.3-2-1.6,1.6-.2,3-1.2,4.7-.3.5.3,1.4-.1,2-.2.6-.7-.2-1.2-.2-1.8,1-.7,1.7.6,2.7.4.7-.1,1.3.3,1.8-.6a1.557,1.557,0,0,1,1.4-.6c.8-.1,1.5-.3,1.5-1.4,0-.7.6-.9,1.2-1,2.3-.5,4.4-1.3,5.6-3.6.3-.6,1.1-1.1,1.2.4,0,.8.7.5,1.1.2.3-.7-.8-.9-.3-1.9,2.3-.4,4.9-.9,7.5-1.3-.2-1-.3-1.7-.5-2.5-.1-.3-.1-.8-.3-.9-1.4-.3-.7-1.5-.7-2.1,0-1,.1-2.5,2-2.1a1.346,1.346,0,0,0,1.2-.5,1.681,1.681,0,0,1,1.8-.5c.5.7-.3,1.2-.4,1.8-.1.9.9.7,1.4,1.3a8.855,8.855,0,0,0-3,2.4c.8,1,1.4,2.1,2.8,1.9.7-.1.4.7.9.9.5-.2,1.1-.3,1.7-.5a5,5,0,0,1,3.2,0c2.1.8,4.3.3,6.4-.5a15.532,15.532,0,0,1,3.6-.8c.5,0,1.1-.2,1.4.4a1.2,1.2,0,0,0,2,.3,4.071,4.071,0,0,1,3.6-1c.5-.9,0-1.6-.2-2.2a3.173,3.173,0,0,1,2.7-3.8c.9-.1,1.3.4,1.9.8,1.2.8,1.1.8,2.6.4.5-.7-.6-1.5.5-2.3a2.118,2.118,0,0,1-2.4-2,10.046,10.046,0,0,1,6.1-1,10.833,10.833,0,0,0,5.9-.9c-1.3-1.5-1.3-1.3-3.1-1.2a68.346,68.346,0,0,0-7.7,1.2c-2,.3-3.5-1-5.2-1.4-.4-.1-.6-.7-.4-1.2.4-1.3-.6-2.3-.6-3.8,2.5-1.4,5.2-3,8.1-4.4.9-.4,1-.8.7-1.5-1.7-1.1-3.7-.6-5.5-.9-.9-.2-1.4,1.1-2.4,1.1.2.8-1.1.9-.7,1.9.2.6-1,1.4-2,1.8a42.2,42.2,0,0,0-4.5,1.8c-1.5.7-2,2-2.6,3.3a1.252,1.252,0,0,0,1.1,1.7,12.417,12.417,0,0,1,3,1.6c-1.2,1.9-3.2,2.4-5.1,3a7.353,7.353,0,0,1-1.4,4.8c-.5.7-1.2.6-1.9.6-1,0-1.9-.1-2.3,1.2-.2.7-1.3.4-1.9.6-.9.3-1.1-.5-1.3-1.1-1.1.2-.6,1.5-1.4,1.8-.3.2-.4,0-.7-.2-.5-.3-1.5,0-1.4-1,.1-.9.8-.6,1.5-.7.9,0,1.3-.9,2-1.7-1.8-1.2-2.5-3.3-3.6-5.1a1.248,1.248,0,0,0-1.7-.7,19.234,19.234,0,0,0-3.3,1.4,5.613,5.613,0,0,1-6.2.4c-.4-.2-.9-.1-1.4-.7-.2-.4,1.1-1.8-1-1.6.7-.7,1.5-.6,1.5-1.5-1.5-.6-1.5-2.1-1.2-3.2a2.614,2.614,0,0,1,2.4-1.9.844.844,0,0,0,.7-.2c1.8-1.3,3.9-1.5,5.9-2.2a2.919,2.919,0,0,0,1.6-1.1,3.93,3.93,0,0,1,2.1-1.3,7.084,7.084,0,0,0,3.8-2.6,13.832,13.832,0,0,1,6-4.3c1.3-.5,2.8-.8,3.7-2a4.479,4.479,0,0,1,3.3-1.7c3.1-.1,5.8-1.6,8.7-2.1a5.822,5.822,0,0,1,1.9.3c2.6-2,6.6-2.5,8.1-1,1-.2,1.6-1.7,2.9-1.1.3.4-.6.7,0,1.1,1.8-1.1,2.9-1,5.6.3-.7.7-1.7.3-2.5.7.1.7.6.7,1,.6,1.4-.3,2.8.4,4.2-.1.8-.2,1.6.6,2.4.9a10.482,10.482,0,0,0,3.9.5,17.927,17.927,0,0,1,7.9,1.8c1.2.7,2.6.6,4,1,1.2.3,2.2.7,2.5,2.3-1.5,1.6-3.7,2-5.9,2a42.511,42.511,0,0,1-7.9-.9,48.749,48.749,0,0,1-5.2-1.2,5.723,5.723,0,0,0,3.3,1.8c1,.2,1.5.4.8,1.6a1.788,1.788,0,0,0,1.2,2.3c1.9.3,3.6,1.6,5.6,1.2.3-.1.7,0,.9-.4-.6-1.2-2.5-.1-3-1.7.5-.9,1.2-.5,1.9-.3a11.958,11.958,0,0,0,6.2.7c0-.9-1.1-1-1-2.1,2.7-.4,5-2.7,8.2-1.3,1.1.5,1.4-.5,1.7-1.2-.1-.9-.9-.8-1.3-1.3.7-.7,1.5-1.4-.1-2.7,2.5.5,4.8-.7,6.2,1.7-1.1.4-2.3,0-3.3.8a5.182,5.182,0,0,0,5,1.2c.3-.1.8,0,.9-.3,1-2.1,3.2-1.7,4.8-2.3a14.458,14.458,0,0,1,4.6-.9c1.5.1,2.7-1,4-.9.6.6-.1,1,.2,1.5.8-.2,1.8.3,2.7-.3a4.023,4.023,0,0,1,3.5-.6,6.065,6.065,0,0,0,3-.3c.9-.3,2.3-1.2,2.9.6.1.2.6.3.7.3.8-.8,2-.4,2.8-1,.3-.9-.8-.9-.8-1.6q0-.15.3-.3c2.7-.7,5.3-.1,7.9.4,2.8.6,5.8,1,8.4,2.4.9.5,1.5.2,1.9-.7-1.5-.8-2.4-2.6-4.4-2.2.1-1,1.2-.8,1.3-1.8,0-.7-1-.4-1.4-.8-.1-.8.6-.9,1.1-1,1.7-.4,3.2-1,3.9-2.8a.875.875,0,0,1,.9-.6c2.4.2,4.8-.3,7.2.1.1,0,.2.2.4.3,0,1.3-1.1,1.7-2,2.3,0,.6.6.7.9.9a1.58,1.58,0,0,1,.6,2.1c-.7,1.8,0,3.1,1.7,3.9-.6,2-2.7,2.2-3.9,3.4-1.7,1.7-3.5-.2-5.1.7,3.8,1.4,6.3,1.9,11.9-2.4.4-.7-.7-1-.4-1.5,0-.3.2-.5.3-.5a7.386,7.386,0,0,1,3.6-.3c1.6.1,1.9.6,1.8,2.5.1.3.4.3.6.4a.627.627,0,0,0,.8-.1c.4-.6-.5-.4-.5-.8,0-.5.7-.3.8-.8-.2-1.1-.8-1.5-2-1.7a27.984,27.984,0,0,0-5-.3c-.8,0-1.7.2-2.2-.9-.5-1,.3-1.4.7-2,.1-.1.1-.2.1-.4-.3-.9-1.3-1.1-1.9-1.8.3-.7,1-.7,1.6-.8,1-.2,2.1-.2,2.3-1.6.1-.7.8-.4,1.3-.2.5,1-.8,1.3-.7,2.3,1,1.2,2.5.8,4,1,0-1.1-1.5-.4-1.4-1.8,0-.1.5,0,.8,0,1.2.1,2.1.3,3.3-.6,1.1-.9,3-.2,4.3.4a10.92,10.92,0,0,0,5.7.9c-.3,1-2,.9-1.3,2.3,1-1.7,1.8.8,2.9.3,0-1-1.6-1.7,0-2.7-1.4-.5-2.3-1.2-3.4-1.3-1.8-.1-2.8-.9-3.4-2.8,5.3-.5,10.6-.6,16-.6-.5-1.2-1.7-.8-1.9-1.8.1-.5.5-.6.8-.7a35.594,35.594,0,0,1,8-1.7,34.889,34.889,0,0,0,7.9-1,5.921,5.921,0,0,1,4.3.4c1.1.6,2.5-.1,3.8-.2a5.934,5.934,0,0,1,2.3,0,1.524,1.524,0,0,0,1.9-.6c.6-.9,1.7-.2,2.7-.6.1-1,.9-1.3,1.9-1.5a17.364,17.364,0,0,1,7.5-.5c.2.6-.4.6-.4,1,1.4.1,2.8.3,4.1.4.3.4-.4.5,0,1a26.425,26.425,0,0,1,14.7,1,2.606,2.606,0,0,1-2.7,2.6,27.151,27.151,0,0,0-6.9,1.9c-2,.7-4.1.9-6.1,1.7,2.6.4,5.1-.2,7.7-.6.3-.1.6-.1.6-.6.1-.9.9-.8,1.3-.5a6.127,6.127,0,0,0,4.4.5c.9-.2,1.1.6,1.5,1a18.564,18.564,0,0,1,7.4-.8c.8,0,1.5.2,2.3.2a2.2,2.2,0,0,1,.8.1c3.5,1.5,3.9,1.6,7.6,1.3a4.819,4.819,0,0,1,1.2,0c1.2.3,2.2.4,2.9-1.1a2.013,2.013,0,0,1,2.5-.6,32.324,32.324,0,0,0,6.9.7,2.006,2.006,0,0,1,1.7.7c-1.5.8-3.2.8-4.9,1.6a16.8,16.8,0,0,1,6.7,2.4c3,1.7,3.5,1.6,6.2-.7a3.49,3.49,0,0,1,.9-.6,7.006,7.006,0,0,0,6.3.7,6.834,6.834,0,0,1,4,.4c.8.3,1.6.6,2.2-.4.3-.5.9-.4,1.4-.2.6.1,1.2.5,1.9.1a1.063,1.063,0,0,0,.1-1.2c-.4-.3-1,0-1.5-.3a.891.891,0,0,1,.8-.5,17.632,17.632,0,0,0,4-.7c1.6-.4,3.2.3,4.8.3,1.2,0,2.5.2,3.7.3,1,0,1.3.6,1.7,1.7,2.7-1.8,5.6-1.2,8.4-.6.1.7-.7.3-.8.8a.758.758,0,0,0,.4.2,5.833,5.833,0,0,0,2.3.3,3.018,3.018,0,0,1,1.9.5c1.6,1.5,3.4,1.1,5.2.9a34.71,34.71,0,0,1,9.1-.3,11.083,11.083,0,0,1,2.5.5c1.5.5,1.5.5,1.8,2.1,1.9.3,1.9.3,2.8,1.3a15.868,15.868,0,0,1,8.1-.7,9.087,9.087,0,0,0,5.4-.2,1.939,1.939,0,0,1,1.8.3c2.1.8,4.1,2.3,6.5,1,.1-.9-1.1-.9-1.2-1.6.2-.5.7-.6,1.2-.6,6.7.5,15.5.4,22.1,2C802.4,50,802.4,53.1,802.4,56.2ZM444.5,107.9a21.807,21.807,0,0,0-6-3.5c-2.2-.8-3.9-1.7-4.7-4,0-.1-.3-.2-.5-.3-.7-.1-.9,1.1-1.5.8-.8-.5-.4-1.3-.9-1.8a6.652,6.652,0,0,0-2.4.7c-.5,2.1.3,3.3,2.3,3.8a1.057,1.057,0,0,1,.7.6c.9,2.3,2.6,3.4,5.3,3.2-.3,1.1.4,1.3,1.1,1.5a10.607,10.607,0,0,1,3.7,1.8c.5.4.8.9,0,1.4a4.448,4.448,0,0,0-2.9-1.4c-.3.4-.8.7-.8,1.5.3.5,1.4.5,1.1,1.7a2.666,2.666,0,0,0-1.5,1.3c-.2.4-.6,1.3-1.2,1.1-1.7-.5-1.6.4-1.5,1.6.1.9-.4,1.2-1.2.9-1.7-.6-3.3-1.4-5-2.1a1.546,1.546,0,0,1,2.1-1c1.3.5,2.5,0,3.8,0a2.075,2.075,0,0,0,2.1-1.6,2.268,2.268,0,0,0-.9-2.4c-2-1-3.8-2.4-5.9-3.2-2.3-1-4.7-2.2-6-4.7a3.162,3.162,0,0,0-4.6-1.3c-1.1.6-2.3,1.2-3.4,1.9a2.848,2.848,0,0,1-3.3.2,6.02,6.02,0,0,0-2.6-.5,1.856,1.856,0,0,0-2.1,2.1c.2,1.2-.3,1.6-1.2,2-1.7.8-3.9.9-5.1,2.8-.3.6-1.1.9-1.3,1.7s.8,1.1.8,2a2.907,2.907,0,0,0-2.1,2.4c-.9.2-1.9.1-2.3,1.2-.2.5-.6.6-1.1.6a24.319,24.319,0,0,1-2.7,0,5.973,5.973,0,0,0-4.2,1.6c.9,2.1,2.7,2.2,4.3,1.7,1.3-.4,2.2.6,3.4.4,1.3-.2,1.9-1.5,3.2-1.7.5-.1,1.1.4,1.6-.3a3.993,3.993,0,0,1,3.4-1.3c2.6,0,5.2-1.1,7.9-.4a2.917,2.917,0,0,0,2-.4,4.721,4.721,0,0,1,3.3-.1,3.812,3.812,0,0,0,3.3-.4c.7-.4,1.8-.7,2.2-.1.6,1,1.4.6,2.7.7-1.7,1.1-1.9,1.9-.5,2.9.7.5.2,1.2-.3,1.6-.6.6-1.4.9-1.7,1.7.4,1.1,1.6.8,2.2,1.3a8.219,8.219,0,0,0,5.2,1.6c1.8.1,3.7.3,4.6,2.5a1.441,1.441,0,0,0,1.3.8,14.232,14.232,0,0,1,6,2c1.3.7,2.8-.6,2.7-2.1a1.93,1.93,0,0,1,.1-1.5c.8-1.6,5.1-2.5,6.3-1.2a4.489,4.489,0,0,0,2.5,1.2c2.1.5,4.1,1.3,6.2,1.4a9.592,9.592,0,0,1,2.8.7,4.567,4.567,0,0,0,4.1-.1,4.38,4.38,0,0,1,4.7-.2c1.3.7,3.7,1.2,4.8-.3,1.7-2.2,2.5-4.9,3.5-7.5a1.1,1.1,0,0,0,0-.8c-.6-1.2,0-2.4.6-3.8-1.1.7-1.8,1-2.8.5-.6-.3-1.1.2-1.6.5a3.2,3.2,0,0,1-4.2.1,9.129,9.129,0,0,0-1.3-.8c-1.5-.7-1.9-.5-2.7,1.2-2.3-.1-4.2-1.5-6.4-2-.4-.1-.4-.5-.4-.8a2.467,2.467,0,0,0-1.9-1.9c1.3-1.6,1.1-2.6-.7-3.2a14.918,14.918,0,0,0,.2-2.1c-1.5-1.1-3.1-.9-4.7-.5-.3.1-.6.2-.5.5a.883.883,0,0,1-.4,1.3c-.7.4-1-.3-1.5-.6a3.6,3.6,0,0,0-.9-.5c-.4,1.4,1.7,2.2.5,3.4.6,1.1,2.8.6,2.4,2.6-.7,0-1.2-1.1-1.9-.4-.2.5.8.6.2,1.3-.1.4-.6-.7-.9,0,.1.5.6.9.3,1.4-2-.1-3.6-.8-3.5-2.4,0-1.2-.9-1.6-1.1-2.4-.1-.6-.7-.6-.9-.9C444.9,111.8,443.3,110.4,444.5,107.9Zm30.8-9.7c-1.1-.6-3.1.9-3.4-1.4a6.6,6.6,0,0,0-1.4.1,6.35,6.35,0,0,0-3.7,2.7c-.3.5-.3,1.1-1.1,1.2a1.272,1.272,0,0,0-1,1.1c-.1,1.8-1.8,2.6-2.3,4.2.7,1.5,1.7,2.8,3.5,2.8,2.1.1,4.1.8,6.1-.7s4.5-1.1,6.7-.8c1.5.2,3.1,1.2,4.7,1.7a19.825,19.825,0,0,0,8.4,0c1-.2,1.7-.7,1.6-1.9-.1-1.1-.4-2.1-1.6-2.3a9.1,9.1,0,0,1-3-1.4,22.8,22.8,0,0,0-3-1.7c-.8-.4-2.2-.3-2.4-1.7,1.4,0,1.5-1.7,2.6-2.1-.2-.5-.9-.5-.9-1,.9-.4,1.9-.4,2.9-1.4-3.9.3-7.2,1.4-10.6,2.3,1.1,1.8,2.9,1.7,4.7,2-2.2.4-4.2,1.3-6.7,1.8.7-1.9-.9-1.8-1.7-2.3C473.9,98.7,475,99,475.3,98.2Zm43.3,10.6c-1.2-.9-.8-2.1-.4-3.3-3,.1-3.3-2.9-5.4-3.8.5-.9,1.6-.1,1.7-.6.4-1.7,1.6-1.5,2.9-1.5.9,0,1.8-1.3,1.7-2.4-.1-1.2-.9-1.1-1.7-.8a1.481,1.481,0,0,1-1.3-.2,2.881,2.881,0,0,0-2.4.1,15.957,15.957,0,0,0-2.3,1c-2.2,1.3-5.1,1.5-6.3,4.4,1.1.6,1.9,1.4,1.6,2.8a1.08,1.08,0,0,0,.3.7c1.9,1.8,3.3,4.2,6.1,5.6-1.5-.1-2.1.6-2.1,1.8a1.4,1.4,0,0,1-.3.9c-1.2.9-1,2.2-1.1,3.7a13.354,13.354,0,0,1,4.4,1.9c2.1,1.1,4.3,0,6.5-.1.8-.1.8-.7.6-1.4-.4-1.2-.1-2.4-.1-3.7-1.5-.1-.6-2.5-2.4-2.2a2.326,2.326,0,0,1,.4-2c1.2.2,2.5.8,3.7-.2-.5-.7-1.3-1-1.7-1.9s-1.3-.5-2.1-.2C518.8,107.8,518.7,108.3,518.6,108.8Zm-52.9,1c-2.9-.7-3.4-.6-4.3.9C462.9,110.5,464.3,111.1,465.7,109.8Z" fill="rgba(0,156,255,0.06)" stroke="rgba(0,48,101,0.85)" stroke-miterlimit="10" stroke-width="0.4"/>
      <path id="Path_7" data-name="Path 7" d="M-2.6,387.9c8.1.5,19.3.2,27.4.8,5.8.4,11.5,1.1,17.3,1.3,6.9.3,13.8.1,20.7,0,4.2,0,8.3-1.1,12.4-.6-.1-.7-.5-.8-1-.8-3.5-.5-7.2-.1-10.7-.6-.3,0-.5-.1-.8-.1-.9-.1-1.9-.3-2.2-1.3s.6-1.5,1.2-2a5.918,5.918,0,0,1,.6-.4c-1.8-.8-3.6-.9-5.4-1.5-.1-.3.2-.6-.1-.9-1.3-.3-2.7-.5-4.1-.7,2.5-.7,5.1-.4,7.7-.3,2.7.1,5.3.1,8,.4,2.8.3,5.4-.8,8.1-1.8-6.9-2.3-14.1-2.7-21.2-3.6.2-.8,1.1-.5,1.4-1,0-.2-.2-.4-.4-.3-3.8.3-4.3.2-6.6-1.1,0-1.4,1-1.4,2-1.5a51.657,51.657,0,0,1,13.6.9,11.1,11.1,0,0,0,4.8,0c2-.4,4-.1,5.9-.3.5-1.1-.2-1.4-.9-1.6a18.252,18.252,0,0,0-4-.5c-.8,0-1.6-.1-2.8-.1,2.9-.7,5.4-.5,7.9-.9a197.193,197.193,0,0,1,23-2.5c7.4-.3,14.8-.2,22.2-.1a87.83,87.83,0,0,0,10.3-.4,114.352,114.352,0,0,1,11.7-.4c.9,0,1.7.1,2.4-.8s2.8-.4,3.4.6a2.211,2.211,0,0,0,3.2.6c.1-.1.2-.2.2-.3a1.73,1.73,0,0,1,2.5-.5c1,.5-.1,1.2-.1,1.7a1,1,0,0,0,1,.5c2.9-.4,5.8.6,8.7-.2a17.3,17.3,0,0,1,6-.2,35.666,35.666,0,0,0,8,0c-1.6-.7-3.2-1.8-4.9-2-1.8-.3-2.1-1.8-3.4-2.9a3.917,3.917,0,0,1,2.6-.1,8.018,8.018,0,0,0,2.1.5c4.9-.4,9.7.8,14.6.4a67.669,67.669,0,0,1,7.8.1,7.166,7.166,0,0,0,4.1-.7c.9-.4,1.9-1.1,2.6.4a1.392,1.392,0,0,0,1.4.5c2.9-.6,5.5.5,8.2.9,1,.1,2.1.3,3.1.5a3.92,3.92,0,0,0,3.6-1,2.913,2.913,0,0,1,3.4-.7,11.846,11.846,0,0,0,5.9.9c3.5-.2,7,0,10.5-.5,2.8-.4,5.7-.8,8.5-1.1a6.033,6.033,0,0,0,1.9-.6,1.3,1.3,0,0,0,.5-2.2c-.8-1-1.6-2-2.5-3s-.8-1.5.4-2.2c.4-.2.9-.3,1.3-.5,1.4-.7,1.6-1.5.7-2.7-1.3-1.7-1.2-2.2.9-2.8a20.493,20.493,0,0,0,4.7-2.3,12.271,12.271,0,0,1,5.2-2,18.792,18.792,0,0,0,4.6-1.4c2-.8,4.2-.9,6.1-1.7a.693.693,0,0,1,1,.3c.2.5-.1.9-.6,1.1a8.075,8.075,0,0,1-3.4.8c-2.1.2-4.3.7-5.7,2.2-1.7,1.8-3.2,3.2-5.9,3.2-1.2,0-2.9.9-2.8,2.5.2,1.7,1.9,1.6,3.3,1.8a2.317,2.317,0,0,1,1.9,1.2,44.684,44.684,0,0,0,3.4,4c2.7,3.2,2.1,6.2-1.7,8a27.538,27.538,0,0,0-3.8,2,5.949,5.949,0,0,1-3.2.9c-2.1.2-4.3.5-6.4.9a46.482,46.482,0,0,1-19.3-.2,10.22,10.22,0,0,0-3.5-.1c.1,1.3,1.1,1.6,1.9,1.8a18.816,18.816,0,0,0,7.1,1,5.226,5.226,0,0,1,3.3.7c-6.2,1.5-12.1-.7-18,0,2.3,2,5.2.3,8.1,1.6-5.1,1.5-9.7.8-14.3-.5.6,1.8,2,2.1,3.4,2.2a37.5,37.5,0,0,0,8.2-.2,8.97,8.97,0,0,1,5.2.7c.5.8-.4.9-.3,1.4.1.1.2.2.3.2,5.6,1.6,11.4,2,17.1,2.6,3.6.4,7.1.9,10.6,1.3l6.6.6a6.456,6.456,0,0,1,3.8,1.3,3.939,3.939,0,0,0,3.5.5,64.611,64.611,0,0,1,7.6-1.8c5.5-.6,11-.6,16.5-.8a53.418,53.418,0,0,1,8,.1,5.282,5.282,0,0,0,1.3-.1c3.8-1.9,7.9-1.8,12-2,5.8-.3,11.6,0,17.3-1a6.637,6.637,0,0,0,2-.6c-1.1-2.2-2-2.6-4.5-2.3a68.44,68.44,0,0,1-12.8-.2c0-1.3.9-1.6,1.7-2,2.8-1.5,5.8-1.7,8.8-2.3a171.878,171.878,0,0,1,20.2-2.7c2.5-.1,4.9-.2,7.4-.4a4.228,4.228,0,0,0,2-.5,14.683,14.683,0,0,1,5.9-2.8c-1.1-.9-2.2-.2-3.2-.8,1.7-1.6,4-1.1,5.8-2.1,1.9-1,4.3-.4,6.1-1.6-.2-.9-1.2-.7-1.4-1.5,0-.6.7-.6.9-.5,1.4.9,2.6.2,3.8-.4a1.919,1.919,0,0,1,2.6.5,2.015,2.015,0,0,0,3.4-.2c1.2-1.5,1.9-1.7,3.6-1.1.2.5-.6.5-.5.9,0,.1.1.2.3.2,3.1-.3,6.2.1,9.4-.1a3.352,3.352,0,0,1,1,0c1.9,1.1,3.7.2,5.6-.1,3.6-.7,7.2-1.2,10.8-1.8,1.3-.2,2.5-.5,3.8-.7,1.9-.3,3.8-.5,5.5.7a3.674,3.674,0,0,0,3.9.2,13.8,13.8,0,0,1,5.7-1.1c5.9-.3,11.8.4,17.7.9a48.965,48.965,0,0,0,10.1-.6c3.5-.4,6.9-1,10.4-1.5,1.3-.2,2.5-.3,3.4-1.6a1.882,1.882,0,0,1,2.6-.5c.9.5,1.7,1,2.5,1.5a2.848,2.848,0,0,0,3.3.2c.6-.4.9-.2,1.5.3a4.336,4.336,0,0,0,2.9.7c.8-.1,1.3-.4,1.4-1.3s.7-1,1.4-1.1a20.858,20.858,0,0,0,4.9-1.3c1.6-.6,3.2,0,4.8-.6,1.2-.5,2.7-.2,3.8-1.2a1.065,1.065,0,0,1,1.3.1c1.2,1,2.4.7,3.6.1.1-.4-.4-.5-.2-.9,1.2-.7,2.3.4,3.7.2-.1-1.3.5-1.9,1.8-2.1,3.9-.5,7.7-1.4,11.5.3.6.3,1.7-.1,1.9.3,1,2.1,3,1.4,4.6,1.7a45.734,45.734,0,0,0,5.2.5c5.4.4,10.8.8,16.2.8a3.645,3.645,0,0,1,1.5.2,1.172,1.172,0,0,1,.9,1.1c0,.9-.7,1.5-1.1,2.2s-.7,1.3-1.7,1.2a1.747,1.747,0,0,0-1.8.9c.8.9,2,.1,3,.7-.6,1.6-3.2.7-3.3,2.9a5.736,5.736,0,0,0,5.8.1,4.508,4.508,0,0,0,1.4-1c3.2-3.2,7.3-4.2,11.6-4.9a9.33,9.33,0,0,0,3.9-1.5c3.2-2.3,7-2.9,10.8-3.4a40.5,40.5,0,0,1,7-.5c2,.1,4.1.5,5.3-2.3,1.1,1.9,2.5,1.8,4,1.7a172.2,172.2,0,0,1,17.6,0,10.731,10.731,0,0,0,5.9-1c2.2-1.1,4.7-.8,7.1-.5,3.3.4,6.7,1,10,1.6a8.708,8.708,0,0,0,5.2-1,8.528,8.528,0,0,1,8.2-.1c.4.3.8.7,1.4.6a10.969,10.969,0,0,1,5.1.8c3.2.9,6.3.3,9.5-.2a15.335,15.335,0,0,1,3.7-.2c1.9.1,3.9.4,5.7-.4a1.726,1.726,0,0,1,1.7.1c1.3,1.2,2.9.9,4.4,1.1a1.6,1.6,0,0,0,1.6-.5c1.3-1.3,2.9-1.3,4.5-1.2a27.491,27.491,0,0,0,6.4-.3c.3-.8-.7-2.2.8-2.2,1.4,0,1,1.3,1.1,2.3a13.011,13.011,0,0,0,4.4.6c5.8.1,11.5,1.4,17.3,1.3a2.2,2.2,0,0,1,2.3,1.1c.3.7,1.8.5,2.7.7,3.2.7,6.4,1.3,9.6,2a35.734,35.734,0,0,0,4.7.4c.7,0,.8-.5,1.3-.9a10.2,10.2,0,0,0,6.6,1.6c2.3-.1,4.5.8,6.6,1.4a31.438,31.438,0,0,0,8.6,1.3,55.511,55.511,0,0,1,14,2.4,1.74,1.74,0,0,1,1.4.9c-.6.3-1.5.3-1.4,1.5.1.6-3.3,2.4-4,2.2-2.6-.7-4.9.6-7.2,1.1-.4.7.3.8.1,1.4-1.9-.3-3.6.5-5.6,1.1,1.1,1.3-.1,2.5.2,4a74.248,74.248,0,0,0,8,3.8c-3.7-.1-7.3.4-11,.6-1.2.1-2.3-.1-3,1.4-.5,1.2-2.1,1-3.4,1.8a3.424,3.424,0,0,0,1.9.3c.9.1,1.8.1,2.2,1a2.438,2.438,0,0,0,2.3,1.4c4.1.4,8.1,1.8,12.1,2.9,5.3,1.4,10.6,1.7,16,2.1,4.3.4,10.5.8,14.8.8v13.9H-3.1A121.8,121.8,0,0,0-2.6,387.9Zm79.7,1.3c1.5.1,3,.8,4.5.1C80.1,389.1,78.6,388.5,77.1,389.2Z" fill="rgba(0,156,255,0.06)" stroke="rgba(0,48,101,0.85)" stroke-miterlimit="10" stroke-width="0.4"/>
      <path id="Path_8" data-name="Path 8" d="M-1.6,47.3c2.7.7,7.4,1.3,10.1,2,1.7.4,3.3.7,3.7,2.8.1.5.7.7,1.2.9.6-.4-.5-1.1.2-1.5.6-.4,1.1-.1,1.7-.1a17.318,17.318,0,0,1,8.2,2.5,5.781,5.781,0,0,0-2.8.8,7.237,7.237,0,0,1-3,.2c.6,1.5-.6,1.3-1.3,1.4-.4.4.2.8-.4,1.2-1.9.4-3.6-1-5.5-1-.1,0-.3-.1-.3-.2-1-1.9-4.5-1.5-6.2-1.2-.8.1-1.7.4-2.4-.7-.5-.9-1.3-.4-1.9.3-.4.6-.3,1.6-1.4,1.6C-1.6,53.3-1.6,50.3-1.6,47.3Z" fill="rgba(0,156,255,0.06)" stroke="rgba(0,48,101,0.85)" stroke-miterlimit="10" stroke-width="0.4"/>
      <path id="Path_9" data-name="Path 9" d="M116.5,43.6a2.407,2.407,0,0,1,1.9.8,6.048,6.048,0,0,0,3.7,1.9c.6-1.4,1-1.6,2.1-.6a1.665,1.665,0,0,0,2.1.1c1.7-1,3.3-.7,5.1-.3a51.326,51.326,0,0,0,10.4,1.7,2.676,2.676,0,0,0,2.2-.5c-1.4-.6-2.9-.8-4.1-2,3.8-.8,7.5-.2,11.7-.6a4.549,4.549,0,0,0-2.7-.8h-8a4.96,4.96,0,0,1-3.1-.6,8.245,8.245,0,0,1,3.1-.7c-1.4-.4-2.6-1.3-4.3-1.1,1.4-1.9,7-3.6,10.4-3.3.5.5-.4.7-.2,1.2.6.5,1.2,0,1.8-.2,1.6-.5,3-.6,4.4.7a2.255,2.255,0,0,0,2.7-.2c1.4-1,2.5-.9,3.7.5.6.7,1.1,1.9,2.4.9-.4-1-1.6-1.6-1.2-3,2.1,0,4.4-.1,6,1.4.8.8,2.5,1.7,2,3.5,2.2,2.1,5.8.8,8.3,3.2-1.8.5-3.5-.9-5,.5.8.8,2-.5,2.7.7a4.56,4.56,0,0,1-3.7.8,15.8,15.8,0,0,1-6.1-1.2,1.417,1.417,0,0,0-1.1-.1,32.6,32.6,0,0,1-12.8,1.8c-1,0-2.1.3-2.6-1.1-.1-.3-.5-.3-.9-.4a13.643,13.643,0,0,0-3.5,0c.9,1.1,2.5.7,3.3,1.8-.7.7-1.9,0-2.8.8a6.3,6.3,0,0,0,2.9.6,29.174,29.174,0,0,0,6.6-.2c2.1-.5,4,.3,5.9.8.5.1.5.5.6.8.4,1,1.1,1.2,1.9.3-.3-.6-1.1-1-.7-1.8.4-.7,1.2-.3,1.8-.5,3.2-1.1,6.2,0,9.2.5a40.26,40.26,0,0,0,8.5-.1,1.268,1.268,0,0,0,.6-.1c.5-.2.3-1.2,1.1-1.1a13.434,13.434,0,0,0,1.9-.1c-1.6-.9-3.2-.6-4.7-1.3,1-.6,2.1-.6,2.7-1.6.3-.5,1.1-.3,1.7-.1a8.371,8.371,0,0,1,4,2.2c-.9,1-2.2.5-3.3.8.5.7,1.3.3,1.8,1,0,.3.1.8.1,1.3.5.6,1.1.4,1.7.6.5-.6-.4-1.1.2-1.8a26.656,26.656,0,0,0,4.2-1.5c-.6-1.1-1.6.2-2.1-.6.1-.8,1.3-.2,1.5-1.1-1.8-.9-4.1-.3-5.9-1.5-.4-.5.4-.5.4-.9,0-.7-.9-.3-.9-.9,0-.1.1-.2.1-.3.8-.7,1.8-1,2.6-1.7,1.2-1,4.5.1,5.4,1.5.7,1,2,1.1,2.8,1.9-.4.6-1.4.1-1.6,1.2a3.534,3.534,0,0,0,2,.2c1.2-.1,2,.1,2.3,1.5.1.4.2,1.1.8,1.3,1.3,0,1.3-2.5,3.1-1.8.9.4,1.9.6,2.2,1.7-.3.7-1,.3-1.4.7,0,.1,0,.4.1.5,1,.6,1.7,1.7,3,1.4a4.064,4.064,0,0,0,2.5-1.9,2.568,2.568,0,0,1,2.6-1.5c-.3-.9-1.2-.6-1.6-1.1-.4-.7.4-1,.5-1.6-1-.4-2.3.2-3.1-1-.2-.4-.8.1-1.3.1-1.6.2-3.2.3-4.6-1.1,1.2-.8,2.4,0,3.7-.3-1.8-1.4-3.7-.5-5.4-1.1-.3-.8,1.2-1.3.4-2.3-.2-.2.8-1,1.4-1.4,2.6-1.5,5.4-1.7,8.6-1.4-1.1,1-2.4,1.1-3.3,2,.9,1.3,1.3,3.1,3.4,3-.1.3-.5.8,0,1a.878.878,0,0,0,1.3-.7,1,1,0,0,0-1.1-.4c-.3-.3-.7-.5-1.1-.9a5.5,5.5,0,0,1,.9-.7c-.1-.4-.8-.4-.5-1.2a7.994,7.994,0,0,1,2.2-1.3c3-.6,6.2-1.7,8.9,1.1.1.7-1,.9-1,1.8a1.506,1.506,0,0,0,1.9,0c1.2-.8,2-.7,2.8.9.7-2.4,2.4-2.3,4.1-2.1,1.9.2,3.9-.1,5.6,1.2.2.2.4.2.3.6-.4.3-1.1,0-1.3.9a3.139,3.139,0,0,0,1.6-.6c.9-.1,1.4.6,2.1,1.1a4.22,4.22,0,0,1,3.6-.7c.8.2,1,1.2,2.1,1.4.7.1,1.6.6,2.4.4a4.067,4.067,0,0,1,2.2.2c.4.5-.5.6-.2,1.1,1.2-.2,2.5-.8,3.5.7.1.2-.4.2-.4.7.1.4,1.2-.2,1.2.6-.8.8-2.5-.9-2.9,1.2,2.3.8,4.3,2.1,6.8,1.5a1.432,1.432,0,0,1,1.1.3,9.81,9.81,0,0,0,3.6,2,1.448,1.448,0,0,0,1.1.1c1.1-.4,1.8.1,2.7,1-2-.4-2.4,2.8-4.5,1.7-.5.6-.1,1.1-.3,1.6a1.268,1.268,0,0,1-.6-.1c-.9-.3-2.5-1.6-3.4-1.8-1.7-.4-3.1-2-5.1-1.4-.3.6.6.7.4,1.2-.4.5-1-.2-1.4.1a1,1,0,0,1,.1.4,5.452,5.452,0,0,1,2.4,1.5c.7.7,1.9.5,2.8,1.1a16.218,16.218,0,0,1,2.8,2.5c-1.2.3-1.2,1.2-1.4,2a33.562,33.562,0,0,0-8.2-2.4c1.6,1.8,4.7,1.5,6,4.3-2.7-1-5.5-.9-8-2a21.067,21.067,0,0,0-3.6-.9c-.6-.1-1.2-.1-1-1.1.1-.8-.7-.7-1.1-.7a6.821,6.821,0,0,1-2.6-1.2c-.8-.6-1.9-1.4-3-.2a.349.349,0,0,1-.2.1c-2.6-.3-5.2,1.2-7.7-.3a3.313,3.313,0,0,1,2.7-2c1.2,0,2.3.8,3.6.4a10.236,10.236,0,0,1,3.5-.5c.1-1-1.1-.7-1.3-1.6a7.566,7.566,0,0,0,4.3-2.8,9.665,9.665,0,0,0-9.5-2.8c.2-1.2,1.2-.5,1.6-1.2-2.4-1-4.7-2-7.3-3.1.1.8.9.8.8,1.7-3.5-.4-7,.2-10.6,0,1.5.5,2.8,1.4,4.5,1.4.4,2.9-1.9.5-2.4,1.5.4,1.4,2,1.7,2.9,2.6a4.89,4.89,0,0,1-5.7,1.9,2.1,2.1,0,0,1-2.9.4,3.441,3.441,0,0,0-2.8-.2c-.1.7.8.4.7,1-.8.8-2,1-2.9,1.8a.965.965,0,0,1-1.4,0,5.138,5.138,0,0,0-4.2-1.3,8.19,8.19,0,0,0,5.9,1.4c-.4,2.3-2.2,3-5.6,2.6,0,1.7-1.3,1-2.2,1.1-.5.6.6.5.4.8a.653.653,0,0,1-.7.5c-1.8,0-3.2,1.2-4.5,2.1-1.7,1.2-3.6,2.5-4,4.9-.3,1.6.2,2.4,1.7,2.6,2.1.2,2.8.8,3.4,2.8a5.627,5.627,0,0,1,.2,1c2.5-.9,4.9-.4,7.3.3a11.765,11.765,0,0,1,2,.7c3.2,2.1,6.8,2.7,10.5,2.8.9,0,1.8.3,2.9.4-.9,1.5.7,2.9-.1,4,.6,2.2,2.8,2.5,4,3.8.5.5,1.3,1.2,2.1.1.3-.5.8-.1,1.2.1.8-2.2.6-3.6-1.4-7.1,1.3-.6,2.7-.8,3.9-1.6l1.5-.9c2-1.6,1.8-3.5-.3-4.9a9.159,9.159,0,0,1-2.6-1.6c.9-.7,1.3-1.9,2.6-2.5-.5-.8-.4-2-1.7-2.2.2-.6.9-.8,1-1.4,0-.5-.9-.5-.8-1.4,0,.1,0-.1.1-.3.6-.9,1.5-.7,2.3-.6,2.4.4,4.7.8,7.1.2,1.3-.3,2.7.6,3.7,1.5,1.5,1.4,3.3,1.6,5.2,1.7.2,0,.4.1.8.1-1.6,1.4.7,3.1-.6,4.7,1.3.1,2.8-.5,3.7,1.1h.2c1.2.1,2.3-1,3.2-1,1.6,0,1.7-.9,2-1.8.3-1.1,1.6-.6,2-1.6,3,2.1,4.8,4.9,7.3,7.2-.2.9-1,.5-1.6.6.7,1.9,3.9.9,3.8,3.6,2.2-.6,4,1.1,6.1.9.3.5-.1.6-.5.9,1.1.2,1.5,1.5,2,1.5a3.66,3.66,0,0,1,2.6.8c.1.9-.9,1.8.3,2.5a7.324,7.324,0,0,1-5.1,1.7,2.173,2.173,0,0,0-1.9.7,6.469,6.469,0,0,1-4.8,1.7c-3.4,0-6.8,0-10.2-.1-1.4,0-2.7.2-3.5,1.6a1.357,1.357,0,0,1-1.3.7,6.869,6.869,0,0,0-4.5,2.7c3.7-1,7.1-3.1,11.2-2.4.5.1,1,.2,1.1.9a5.237,5.237,0,0,1-3.3,1.7c.5,1.2,1.4-.2,2.1.6a2.136,2.136,0,0,0,.2,2.4c.6,1.1,2,1,2.9,1.6a2.937,2.937,0,0,0,2.6.2c.7-.3,1.1.5,1.8,0a3.348,3.348,0,0,1,2.1-2.9c.8.5,0,1,.2,1.3.3.7,1.1.3,1.3,1.2a3.328,3.328,0,0,1-3,.9c-.4.2.6.7-.2,1-1.3.3-2.6.7-3.9,1.1-1.5.4-3,.6-4.1,1.9a4.465,4.465,0,0,1-1.7.8c-1.8-1.5-1.7-2,.2-3.1.7-.4.7-.4,1.2-1.4-1.5,1.1-3.5.2-4.9,1.7a2.73,2.73,0,0,1-1.8.5c-1.7,0-3,1.2-4.6,1.8a2.682,2.682,0,0,0-1.1,3.5c.4.7,1.1.2,1.9.6-2.1.4-3.7.7-5.3,1.1a8.518,8.518,0,0,0-2.3.4c-.9.3-2,.4-1.9,2.1a2.758,2.758,0,0,1-2.5,2.7c.7,1.7-.7,2.4-1.5,3.4-.1,0-.1-.1-.2-.1.1-.8.4-1.6-.8-1.8-.8,2.1,1,3.5,1.4,5.5-1.5.5-1.6,2.9-3.7,2.7-1.1,1.9-4,1.5-5,3.7-.2.4-.8.6-1.3.8a4.76,4.76,0,0,0-2.4,6.9c1.1,1.8,1.4,3.7,2.2,5.6.6,1.4-.2,2.6-.6,3.9-1.9,1-2.2-1-2.9-1.7a9.235,9.235,0,0,1-1.9-2.8c-.3-.5-.7-1.4-.5-1.8,1.1-2.4-1.3-2.9-2.2-4.1-.5-.6-1.2-.2-1.8.1-.7.4-1.4.7-2.1-.3a3.038,3.038,0,0,0-2.8-.9c-1.1.1-2.3.2-3.4.2-2.1,0-2.1-.1-2.9,1.9,0,.1-.1.1-.1.2-1.5.3-3,.9-4.2-.6-2.6.5-5.5-1.3-7.7,1.1a2.653,2.653,0,0,1-1.5.9c-1.5-.2-2.4,1-3.1,1.7a2.768,2.768,0,0,0-.7,3.2c.6,1.1.2,2.1-.1,3.3-.9,3.3-1.3,6.8,1.1,9.9.4.5.9.9,1,1.4.7,2.4,2.9,2.6,4.6,3.6.9.5,1.9-.1,2.8-.4,1.8-.5,2-.5,3.3,0,.5-.3.3-1,.9-1.3,1.1-.5,1.2-1.7,1.4-2.8.1-.8.2-1.7,1.3-1.9,1.9-.2,3.7-1.2,5.7-.7.5.1,1.1.1,1.3.6.3.6,0,1-.5,1.3-1,.7-1.1,1.7-1.1,2.9a2.271,2.271,0,0,1-.9,2.3c-.4.3-.4,1.5-.4,2.2a3.041,3.041,0,0,1-1.5,3,21.587,21.587,0,0,0,5.6.2,7.942,7.942,0,0,0,2.2-.1c1.9-.6,2.8,1,4.1,1.7a1.662,1.662,0,0,1,.4,2.3c-1.1,1.7-.7,3.7-1.2,5.5a2.855,2.855,0,0,0,.8,2.3c.9,1.2,2,2.2,3,3.3a2.385,2.385,0,0,0,2.8.5c.6-.3,1.2-.5,1.8-.8a4.349,4.349,0,0,1,5.7,1.1c.4.5.9.9,1.4,1.5.2-.6.1-1.2.7-1.6,1.2-.9,2.4-1.8,2.5-3.6,0-.4.4-1,.9-.9,1.2,0,2.1-.9,3.3-1a4.855,4.855,0,0,0,3.3-1.7c.9-1,1.6-.7,2.4.1-.4.9-1.4.3-1.7,1a1.336,1.336,0,0,0,.6,1.5c1.1-.4,2.2-.7,3.1-1,.5-.7-.6-.9-.2-1.5l.1-.1a18.715,18.715,0,0,1,4.1,2.5c.6.6,1,1,1.9.9a5.494,5.494,0,0,1,4.3.7,1.95,1.95,0,0,0,2.4,0c1.5-1.5,3.3-1,5.1-1-.1.7-.9.2-1,.8,1.7,2.1,2-.6,2.9-1.1a1.552,1.552,0,0,1,0,2.2c.2.6.9.6,1.2,1-.1.6-.7.9-.6,1.7,2.8,0,5.1.9,6.1,3.9a3.474,3.474,0,0,1,2,1,3.952,3.952,0,0,0,4.1,1.1c2.4-.5,4.5.5,6.5,1.6,1.2.6,1.8,2,3.2,2.4.5.2.4,1,.6,1.6.6,1.4.4,3.3,2.3,4a.751.751,0,0,1,.1,1.2c-.9.8-1.3,2.1-2.5,2.7a3.915,3.915,0,0,0-1.9,3c1,.4,1.6-1.3,2.5-.2a1.791,1.791,0,0,0,.4-1.3c0-1.1.6-1.6,1.6-1.3s2.1-.4,3.1.5a4.588,4.588,0,0,1-1.9,3.4,3.383,3.383,0,0,0,2.4-1.7,1.725,1.725,0,0,1,2.3-.9c1.3.6,2.8.7,3.9,1.7.1.1.1.2.2.3,2,1,2,1,1.7,3,.8-.2,1.4-.7,2.1-.9a2.789,2.789,0,0,1,2.2.1,6.026,6.026,0,0,0,4.3.7,3.742,3.742,0,0,1,3.1.7,13.015,13.015,0,0,1,2.3,1.8c1.5,1.3,2.9,2.6,5.1,2.5,1.1,0,1.5.6,1.8,1.6.4,1.8,1,3.4.6,5.3-.6,2.6-2.4,4.1-4.3,5.5a2.827,2.827,0,0,0-1.1,1.5,9.245,9.245,0,0,1-1.6,2.9c-.4.7-.8.4-1.3,0a8.357,8.357,0,0,0-.6,5.6,9.417,9.417,0,0,1-.6,5.3,12.54,12.54,0,0,0-1.1,3.9c0,1-1.1,2-1.8,2.9a3.767,3.767,0,0,0-1.1,3c-1.2.3-2,.8-2.2,2a20.832,20.832,0,0,1-2.5,0,7.892,7.892,0,0,0-4.7,1.2c-1.4.8-3,1.2-4.4,2.3-.8.6-1.7,1.2-2.5,1.9s-.6,1.7-.6,2.6a24.317,24.317,0,0,1,0,2.7,3.127,3.127,0,0,1-1.3,2.5,5.557,5.557,0,0,0-2.1,2.7,7.315,7.315,0,0,1-2.9,3.6c0-1.2,1.3-1.7,1.6-2.8-.4-.5-1-.5-1.1-.1-.5,1.7-2,2.7-2.5,4.5-.6,2.2-2.6,3.6-4.3,5.1a1.592,1.592,0,0,1-1.3.3c-1.6-.5-3.3.5-4.9-.7-.7-.5-2,.2-2.9-.7,0,1.8,1.8,1.4,2.5,2.5-.2.9-.4,1.8.8,2.5.9.4.2,1.2-.2,1.9-1.5,2.7-4.1,3.3-6.9,3.6a43.3,43.3,0,0,1-5.1,0c1,1.5-.5,2.8.1,4.1-2,1.6-4,.5-5.9.1-.6.7,0,1.1,0,1.6.2,1.6.2,1.6,1.9,1.1a.765.765,0,0,1,.9.2,1.073,1.073,0,0,1,.1,1.1.67.67,0,0,1-.8.3c-.5-.2-.9-.6-1.5-.3-.3.4.4.4.4.7-.4.7-1.9.6-1.6,1.7.2,1-.9,1.4-.6,2.4-1.2.3-2.6.2-3.5,1.3-1,1.1-.9,1.8.2,2.7a3.047,3.047,0,0,0,1.6.8,1.64,1.64,0,0,1,1.4.6,2.781,2.781,0,0,1-2,2.4c-1.2.5-2.4,1-2.4,2.7,0,.7-.8,1-1.4,1.2-2.2.8-2.5,1.9-1.1,3.7a12.486,12.486,0,0,1,.8,1.2,4.878,4.878,0,0,0-.7.3c1.9,2.6,4.1,4.8,7.6,5a4.907,4.907,0,0,1-3.3.6c-2.8-.7-5.7,0-8.4-.5.1-.8.1-.8,1.5-1.1-.3-.8-.3-1.7-1.1-2.2.1-.7.8-.8,1.2-1.2-.2-.1-.3-.2-.4-.2a1.544,1.544,0,0,0-1.9,1.5c-.1,1.4-.9,1.3-1.8,1.1-.3-1,.7-1.2.8-2-.9-.1-1.6.4-2.4.4-1.7,0-2.1-.5-2.2-2.2a4.331,4.331,0,0,0-1.6-2.5c.2-.2.6-.4.8-.6,0-.2,0-.3-.1-.4-1.4-1.1-.9-2.8-1-4.2-.1-.7.4-1.4-.3-2.2-.6-.6.6-.8.7-1.4-.7-.8-2-.2-2.6-1.3.7-.4,1.2-1.2,2-1.4.9.2.3,1.3,1.3,1.3.9-1.2.6-3.3,2.6-3.9-1-1.2-1.3-2.1-.5-3.5a3.039,3.039,0,0,0,.2-3.2c-.7-.2-1.1.5-1.9.3.8.9-.4,1.4-.1,2.1a2.161,2.161,0,0,1,.1,1.1c-.1.4-.3.7-.8.6a.661.661,0,0,1-.6-.7c.3-1.1-.2-2.6,1.5-3.2-1-1.6-1-3.1.4-4.4.2-.2.4-.7.3-.9-.6-1.4,0-3-1.1-4.3.6-.5,1.4-.7,1.6-1.6.5-2.2,2-3.9,2.6-6.1.4-1.5,1-3,.7-4.7-.3-1.3-.7-2.8.5-4.1a.909.909,0,0,0,.1-1.1,2.437,2.437,0,0,1,.1-2.6c1.1-2.1.9-4.5,1.7-6.7.3-.8-.1-1.5-.1-2.3-.1-1.7.5-3.3.8-5,.4-2.4-.1-4.7-.1-7,0-1-.8-1.6-1.5-2.3-2.5-2.4-5.8-3.3-8.5-5.2-1.6-1.2-3.3-2.3-3.5-4.6a7.108,7.108,0,0,0-1.3-2.4c-1.7-2.6-2.8-5.6-4.3-8.4-.8-1.4-1.9-2.7-2.7-4-.6-1-1.8-1-2.7-1.8.3-.4,1-.7.5-1.5-1.2-2-1-2.5,1-3.8,1.4-.9,1.4-.9,1.7-2.4-.4-.5-.6.1-.9.2a.744.744,0,0,1-1-.3,8.132,8.132,0,0,1,0-3.8,7.526,7.526,0,0,0,1.5-3.6,4.892,4.892,0,0,0,3.3-3.7c2.2-.5,2.7-1.6,2.7-3.9,0-1.1-.2-2.2-.1-3.4a3.217,3.217,0,0,0-.9-3,3.613,3.613,0,0,1-1.1-2.4c0-.9-.7-1.4-1.5-1.8a1.333,1.333,0,0,0-1.8.7c-.2.4-.8.6-1.2.9-.1.7.8.9.7,1.5-1.5,1.6-2.5-.3-3.5-.8a6.068,6.068,0,0,0-2.6-.8c-.8,0-1.8-.2-1.9-1.2-.3-1.7-1.8-1.8-2.8-2-1.8-.5-1.9-.3-2-2.1a2.716,2.716,0,0,0-.8-1.7,22.841,22.841,0,0,0-2.2-2.2,2.609,2.609,0,0,1-1.1-2.1c-1.7.9-3.1,0-4.6-.4a16.893,16.893,0,0,0-3.4-.9c-1.2-.1-2-1.1-2.9-1.8-1.1-.9-2.2-1.9-3.3-2.7-1-.7-2.2-1.1-3.1-.4-2,1.5-4,.9-5.7.1-2-.9-4-1.4-6-2.3s-3.9-1.9-6-2.7c-1.6-.6-3-2-4.4-3.1a1.543,1.543,0,0,1-.4-2.2c.8-1.3.1-2.8-.7-3.7a67.61,67.61,0,0,0-5.8-6.2c-.6-.5-1.2-1.2-2-1.1-.6-.8.3-1.3-.1-1.9-1.1-.8-2.5-1.3-3.1-2.8-.1-.2-.3-.3-.4-.4-2.6-1.2-3.6-3.7-4.8-5.9-.7-1.3-1.2-2.2-2.8-2.2-.4,0-.7-.3-1.1-.4-.5,1.3,0,3.6.9,4.3a21.09,21.09,0,0,1,3.6,4.3c.7.9,1,2.2,2.3,2.6.5.1.6.7.6,1.1a12.214,12.214,0,0,0,1.6,3.7c.4.8,1.7,1.4,2.5,2.1.1.1.1.2.2.3-.1.6-.4,1-1.3,1.2a5.5,5.5,0,0,0-2.4-2.6c-1.2-.9-2.3-1.6-2.4-3.4,0-1.5-1.5-2.1-2.7-2.5a9.672,9.672,0,0,1-3.5-2.3,4.221,4.221,0,0,0,1.2-.3.955.955,0,0,0,.4-1.6c-.4-.5-.7-1-1.2-1.2-2.4-1.1-3-3.6-4.2-5.6a26.426,26.426,0,0,1-2-3.7c-.3-.8-1.3-.9-2.1-1.3a9.261,9.261,0,0,0-4.7-1.4,5.44,5.44,0,0,0-2-3.1c-1.1-.8-1.3-2.3-2.1-3.3a7.945,7.945,0,0,0-1.4-1.8,7.689,7.689,0,0,1-2.6-4.8c-.3-1.9-.2-3.9-.8-5.8,1.1-1.2.4-2.8.9-4.1.8-2.1,0-4.1-.5-6.1-.1-.6-.8-1-.5-1.9.2-.7-1.4-.5-1.5-1.5-1.1.5-1.6-.6-2.2-1.1-1.4-1-3.4-.9-4.5-2.7,2.2-.5,4.1,1.1,6.2.7a6.365,6.365,0,0,0,3,2.6c1.4.4,1.5,1,.8,2.3.6.5,1.5-.1,2.1.5.2.3.1.5.1.8-.1.2-.2.5.2.6,1-1,1.3-1.9.4-2.8-1.1-1.1-2.2-2.4-4-2.5a.974.974,0,0,1-1-.8c-.3-1.1-1-.8-1.7-.7-.4,0-.9,0-1.1-.4a1.528,1.528,0,0,0-2-.7c-1.1.3-1.7,0-1.4-1.2.2-.7-.5-.3-.7-.9,0-.3.9-.3.8-.8-1-1-2.5-1.5-3-3.1-1.2.6-2,0-2.7-.9-.7-.8-.1-1.4.3-2-.5-.4-.9.1-1.3.1-.9-2.4-.9-2.4-3.3-2.2-1.8-3.1-4.9-4.8-7.3-7.3-.7.5.3,1.1.1,1.6-1,.6-1.3-.7-2.1-.8a1.6,1.6,0,0,1-2.2.8,26.328,26.328,0,0,0-5.5-2.2c.1-.4.6-.2.6-.6-.1-.1-.2-.2-.3-.2a17.149,17.149,0,0,1-4.5-.4,15.913,15.913,0,0,0-4.4-.1,4.735,4.735,0,0,1-1.7-.1c-2.3-.8-4.7-1.4-7.1-2-.9-.2-1.6-.2-2,.2-.7,1.1.8,1.1.1,2.1-2.5-.4-4.7,1.3-7.3,1.9,1.1-4.3,1.2-3.4,4.1-4.2a1.589,1.589,0,0,0-2.1-.3c-1.5,1.1-3.6,1-4.7,2.9-.5.8-2,.4-2.7,1.5.4.4,1.3.1,1.5,1-1.3.6-2.4,1.5-3.9,1.8-1,.2-2.4.3-2.8,1.7,0,.1-.3.3-.4.3-2,.4-3.7,1.5-5.5,2.2-2.1.9-4.5,1-6.7,2-.4.2-.7-.1-1.3-.2,1.5-1.1,2.8-2.1,4.6-1.3a5.05,5.05,0,0,1,3.3-2.2c.6-.2,1.1-.6,1.6-.8,1.7-.6,2-2.2,2.9-3.5-1.2-.2-2.3.2-3.1-.5-.7.1-.3.9-1,1.1a4.41,4.41,0,0,0-4.8-.7c-1.4.5-1.6.2-1.8-1.5-.1-1-.6-1.7-1.6-1.3a4.773,4.773,0,0,1-5.2-1c0-.5.6-.7.8-1.1-.9-.9-2.4,0-3.1-1.5.8-.8,1.5-1.6,2.4-2.4,1.1-.9,2-1.5,3.4-.9a1.7,1.7,0,0,0,1,0c1.4-.9,3.1-.8,4.6-1.2.4-.7-.1-1.1-.4-1.5-.4-.6.8-.4.4-1.1-.9-.5-1.9,0-2.8.4a4.467,4.467,0,0,1-2.8.3,36.483,36.483,0,0,0-4.7-.1c-1.8,0-1.9-.1-2.2-1.9l-3-.6a.64.64,0,0,1,.7-.5A48.581,48.581,0,0,0,35,52a2.218,2.218,0,0,1,2.3.5c1,1,2.5.5,3.7.4a11.329,11.329,0,0,0,2.8-.9c-1.9-.1-3.3-1.8-5.3-1.4a1.1,1.1,0,0,1-.8,0c-2-1.7-4.6-1.8-7.1-2.6a2.911,2.911,0,0,1,2.3-1.3,6.969,6.969,0,0,0,5.8-2c1.4-1.5,3.5-1.1,5.3-1.5.5-.1,1.3.4,1.3-.7,0-.3.8-.2,1.3-.1a13,13,0,0,0,5.5-.9c.8-.4,1.8-.6,2.4.6a.81.81,0,0,0,1,.3,12.387,12.387,0,0,1,7.6.6c1.4.6,3.1.2,4.6.2,2.9-.1,5.8.5,8.7.6,1.2,0,2.4.3,3.7.2a16.844,16.844,0,0,1,5.9.8c2.3.8,4.9.4,7.2,1.3a9.092,9.092,0,0,0,3.6.6c.8,0,1.6.5,2.1-.9.3-.7,1.7-.5,2.6-.4,2.7.2,5.1-.8,7.6-1.2a6.094,6.094,0,0,1,3,0c-2.5.9-5.1,1.2-7.6,2.4.3.6.5,1.1,1.4.5,2.1-1.3,4.6-1.5,7-2,1.1-.2,2.1-.6,3.2-.9.7-.1.4-.6.2-1C116.4,43.7,116.5,43.7,116.5,43.6ZM241.7,176.9c-1.1,1.7-1.1,1.7.4,3.2C243.4,179.1,243.4,178.9,241.7,176.9Zm29.7-96.8a10.168,10.168,0,0,0-4.1,1.5A4.718,4.718,0,0,0,271.4,80.1Zm-86.6-30c-.7-.9-.7-.9-2-.6A2.417,2.417,0,0,0,184.8,50.1Z" fill="rgba(0,156,255,0.06)" stroke="rgba(0,48,101,0.85)" stroke-miterlimit="10" stroke-width="0.4"/>
      <path id="Path_10" data-name="Path 10" d="M695.7,226.2c1.6.4,3.1,1.3,4.8,1.3,1.2,0,2.3,1,3.6.1.2-.2.9.2.8.8,0,.2-.1.6-.3.7-1.7,1-1.3,3.2-2.8,4.5a26.764,26.764,0,0,0,3.7,2.5c1.7.9,3.6,1.6,5,3.1,1.3,1.3,3.1,1.1,3.8-.6a11.723,11.723,0,0,0,1.1-5.3,16.131,16.131,0,0,1,1.7-8.3.794.794,0,0,1,1,.7c.3,2,1.8,3.6,1.8,5.7,0,.7.3,1.4,1.6,1.4a2.3,2.3,0,0,1,2.2,2.5,4.452,4.452,0,0,0,1,3.1,2.957,2.957,0,0,1,.6,2,3.154,3.154,0,0,0,2.3,3.4c1.3.5,2.2,1.9,3.5,1.7.5,1.9,2.2,3.1,2.1,5.2,1.8-.4,2.9,0,2.8,1.9,0,.5.5.9.9,1.2,2.5,1.8,4.6,3.7,4,7.2,0,.2,0,.6.1.7,1.3,1.7.9,3.4.3,5.2-.7,1.9-.1,4-1.6,5.7-.2.3-.3.8-.6,1-1.4.6-1.8,1.9-2.3,3.1-.5,1.1-.7,2.4-1.9,3.3-.9.6-.7,2-.7,3.1a1.71,1.71,0,0,1-1.8,1.9c-2.5-.1-4.3,1.4-6.3,2.4-1.7.1-2-1.9-3.4-2.2-1.5,1.8-2.8,2.2-5,1.3a10.547,10.547,0,0,0-1.9-.5c-2.5-.1-3.9-1.3-4.3-3.7-.1-1-1-1.5-1.2-2.4-.8-.3-1.4.6-2.1.1.4-1.7.4-1.7-.6-2.8-.7.7-.6,2.5-2.5,1.9,1.6-1.4,1.5-3.4,2.4-5.1-1.7,1.7-3.9,2.5-5.1,4.7-1-.7-.9-1.8-1.4-2.6-.7-1.1-2.2-1.6-2.4-3.2-.1-.5-.8-.4-1.3-.5-1.4-.3-2.8-.2-4-1.2a1.431,1.431,0,0,0-1.1-.3c-2.4.4-4.8,0-7.1,1.1a6.184,6.184,0,0,1-2.7.5c-2.6.2-4.9.8-6.7,3-.9,1.1-2.5.8-3.7.6a12.922,12.922,0,0,0-4.4.2,9.336,9.336,0,0,0-3.4,1.5,5.13,5.13,0,0,1-5.8.2,7.63,7.63,0,0,1-1.1-.8c-1.3-.9-1.3-.9-.1-2.1a3.914,3.914,0,0,0,.3-4.2,8.933,8.933,0,0,1-1.6-4.9.6.6,0,0,0-.1-.4c-1.4-1.8-1.8-4.3-3.2-6.1.5.2.4-1.3,1.3-.5.2.2.6-.5.4-.9a6.013,6.013,0,0,0-.9-1.3c-.7-1.1-1.2-2.1-.3-3.4a2.091,2.091,0,0,0,.3-1.9,1.586,1.586,0,0,1,.4-1.9c.4-.2.3.7.8.4,2.2-1.5,4-3.9,7.1-3.7.7,0,1.1-.7,1.7-.8,1.2-.1,2.3-.9,3.6-.8a3.958,3.958,0,0,0,3.5-2.1,3.491,3.491,0,0,1,1.2-1.5c.3-.2.7-.5.5-.9-.6-1.5.5-2.1,1.3-2.9.9.1.8,1.1,1.4,1.3.4,0,.6-.5,1-.4.1-.6-.9-.8-.4-1.5.4-.5,1,.1,1.6,0,.2-.9-.3-2.3,1.5-2.1.1-1.3,1.2-1.5,2-2.2,2.7-2.3,4.1-.9,5,1.6,1-1.2,2.2-.5,3.2-.1,1-.8-.1-1.1-.2-1.8,1.1-1.5,1.9-3.3,3.6-4.6a6.2,6.2,0,0,0,3.3-.1c.3-.4,0-.9,0-1.3C695.6,226.3,695.7,226.2,695.7,226.2Z" fill="rgba(0,156,255,0.06)" stroke="rgba(0,48,101,0.85)" stroke-miterlimit="10" stroke-width="0.4"/>
      <path id="Path_11" data-name="Path 11" d="M349.6,40.2c1,.7,1.6,2,3.1,1.5a3.232,3.232,0,0,1,.6,2.4c-2.2-.5-4.5.5-6.5-1.6-.8-.9-2.2-1.8-3.6-.4-.6.6-1.7.3-2.7.4a2.049,2.049,0,0,0-2.3,1.5c4.5.8,9-.5,13.3.9a12.789,12.789,0,0,1-4.9,1.5,2.953,2.953,0,0,0-1.3.2c-3.2,2-6.8,1.9-10.3,2-.2,0-.5-.1-.5,0-1.6,1.9-3.2.6-4.8-.3-.1.6.1,1.4-.8,1.5a5.538,5.538,0,0,0-3,2,4.047,4.047,0,0,1-3.3,1.4c-.3,0-.6-.1-.7,0-.6.6-1.1,1.3-1.9,1.1-.7-.2-1.4.3-2,.2-.4-.4.4-.9-.4-1.5-1,0-1.5,2.1-3,1.6s-1.7,2.2-3.6,1.2c.7,1.4,0,1.7-.9,1.7.1.6.8.5.8,1.2-1,.1-1.7,1-2.3,1.6-.9,1-2,.4-2.8.9,1.7,1.1,1.6,1.4.5,3a3.7,3.7,0,0,0-.8,2.9c-1.2.5-2.3-1.2-3.6.6.1-2.2-2.6-1.1-2.3-3.2-1.6.7-3.2.2-4.6,1.2-.6-1.8-3.5-1-3.3-3.4-1-.4-2.6,0-1.9-1.9-1,.1-1.2-1.3-2.2-1.3-.3,0-.5-.1-.7-.5.3-1.3,2.1-.7,2.7-1.9-1.4-.4-2.5.5-3.7.8-.4-.5-.3-1-.4-1.5-.2-.6-.3-1.2-1.2-1.2-1.3-.1-1.1-1.4-1.6-2.2.4-.6,1.3,0,1.7-.7-.5-.4-1.2-.1-1.7-.3-.5-.4-.2-1-.5-1.5,2.3-.8,4.5.2,6.6-.2-1.3-1.6-3.5-.9-5-1.9.5-.7,1.1-.2,1.6-.2.8,0,1.6.4,2.5-.4s.3-1.6.5-2.3c-1.9-.6-3.4.9-5.1,1a4.993,4.993,0,0,1-2.7-.2c-.6-.3-1.4-.2-1.3-1.2s1-.5,1.5-.8c.1-.5-.6-.5-.5-1.1a24.85,24.85,0,0,1,7.1,1c-.4-1.6-1.8-2.1-2.8-2.7a3.38,3.38,0,0,0-3.8.4c-1,.8-2.2.2-3.4-.3-.1-1,1.1-1.6.5-2.5.6-.5,1-.1,1.2-.2q.3-.45,0-.6a15.256,15.256,0,0,1-4.1-3.5,2.491,2.491,0,0,0-1.7-.8c-.7-.1-1.6-.2-1.9-1.1a1.357,1.357,0,0,0-1.3-.7c-2.5-.1-4.8-1-7.3-1.1a16.962,16.962,0,0,0-4.5.1c-1.5.3-3.3-.2-4.6.3-2.2.8-4.1-.2-6.1-.2.3-.6,1-.4,1.3-1-2.3-.4-4.6.2-6.7-1,1-.8,2.1-.2,3.3-.3-1.6-2-4.1-1-5.8-2.1,0-.8.5-.9,1.1-.9,4.5,0,8.9-1.6,13.5-1.3,1.1.1,2.2,0,2.5-1.6-1.9-.8-3.9.4-5.7-.7.3-.9,1.1-1,1.9-1.1a61.035,61.035,0,0,1,10.4-1c.8,0,1.7.3,1.8-1.1,0-.5.7-.4,1.2-.5a14.4,14.4,0,0,1,4.1.5,4.084,4.084,0,0,0,1.9.1c.1-.4-.5-.4-.3-1,3,0,6-.9,9.1-.5.6.4.3,1.1.7,1.5.3.2.8.2.9,0,1-1.6,2.4-1.1,3.8-.8.9.2,1.8.3,2.8.5-.2-.9-1-.7-1.3-1.5,2.3-.5,4.5.2,6.7.5,2.1.3,4.1.6,6.2,1a1.654,1.654,0,0,0,2.2-1.4c-.6-.7-1.7-.5-2.4-1.2.9-.7,1.9-.3,2.9-.4a31.515,31.515,0,0,1,9.7.5c.8.2,2,.7,2.3-.8,0-.2.5-.3.8-.3a5.013,5.013,0,0,1,1.7-.1c7.9.1,15.7-.5,23.6.4,3.2.4,6.5,1,9.7,1.6-1.5,1-3.2.5-4.7.9a28.973,28.973,0,0,1-5.1.1,27.828,27.828,0,0,0-5,0c-1.6.3-3.3-.2-5,.3.2.8.8.5,1.2.5,2.2,0,4.4.1,6.6-.1a10.22,10.22,0,0,1,3.5.1,16.038,16.038,0,0,0,6.9-.1c.9-.1,1.8-.4,2.8.3-1.4,1.4-3.6.9-4.8,2.4.7.7,1.3.1,1.9-.1,3.7-1.2,7.3-2.3,11.2-1.8a2,2,0,0,0,1.3-.2c3.4-1.3,6.8-.5,10.2.1.2,0,.3.1.5.6-3,0-5.6,1.4-8.4,2-2.7.6-5.6-.2-8.2.9,1.7.2,3.4-.4,5.2.3-.6.9-1.5.7-2.2.8-.8.1-1.5.1-1.9,1a.991.991,0,0,1-1.2.7c-1.8-.3-2.6,1-3.6,2.3,1.3.4,2.1-.8,3.1-.6.9.2,1.9,0,2.8.6-.6.7-1.3.1-1.8.6,1.3,1,3.2-.1,4.5,1.1-1.5.5-3.1.2-4.6.2-1.6,0-3,.8-4.6.4,1.2,1.2,2.8.8,4.1,1.1.6.1,1.2,0,1.7.4.4.3.7.6.5,1.2a1.008,1.008,0,0,1-1.1.7c-.7-.1-1.4-.5-2.1.1,1,1.2,2.7.6,3.9,1.6-1.3.8-2.6.4-3.8.6-.4.7.9.7.5,1.4a.366.366,0,0,1-.4.4c-2.6.2-5.2.8-7.6-.6-2.5.8-5.2.4-7.7,1.1a.349.349,0,0,0-.1.2c.8,1,2,.8,3.1.8a17.186,17.186,0,0,1,5.1,1.1,3.437,3.437,0,0,0,1.4-.1ZM249.7,28.6a4.954,4.954,0,0,0,4.1-.3C252.2,27.2,251,28.1,249.7,28.6Z" fill="rgba(0,156,255,0.06)" stroke="rgba(0,48,101,0.85)" stroke-miterlimit="10" stroke-width="0.4"/>
      <path id="Path_12" data-name="Path 12" d="M220.9,18c-.2-.7-1.1-.4-1.2-1.2a24.914,24.914,0,0,1,9-.6c.9.1,1.8.7,2.6-.4.1-.2.9-.1,1.3,0,1.5.3,3.1,0,4.6.5.8.3,1.1-.7,1.9-.7,1.9.1,3.7,1,5.6,0,4.6.8,9.2.3,13.8.8a41.663,41.663,0,0,1,4.9.8,13.366,13.366,0,0,1-7.4.9,13.7,13.7,0,0,0-5.2.5c1.7,1.3,3.4-.5,5,.8-3.8.5-7.3,1.8-11,2.2-.5,1.9-2.2,1.3-3.5,1.4a27.478,27.478,0,0,1-4.1-.2c-.3.5.4.5.3,1h-3.3c-.4.6.4.9.1,1.4-4.7,2.8-4.1,2-6.8,1.8a2.141,2.141,0,0,1-1.8,1.6c.6,1,1.8.2,2.3,1.1-.3.6-.8.6-1.4.7-1,.1-2.1.2-3.1.4-1.2.2-2.2.4-3.3-.5a2.544,2.544,0,0,0-2.4-.1,4.508,4.508,0,0,1-1.1.3,31.267,31.267,0,0,0-5.3,0,10.79,10.79,0,0,1-5.6-.4c-.4-.2-.7.1-1.1.2a2.6,2.6,0,0,1-2.5-.4c1.2-1,2.7-.8,3.9-1.2.2-.7-.7-.6-.6-1.1a.215.215,0,0,1,.2-.2,10.691,10.691,0,0,1,5,.7,7.335,7.335,0,0,0,4.4.3c-2.6,0-4.3-2.8-7.2-1.8,1.1-1.9,2.9-1.3,4.5-1.5,1.7-.2,3.3.5,5.1.2-2.7-1-5.6-1.5-8.3-2.7.4-.7.8-.6,1.3-.6a25.487,25.487,0,0,1,3.9.2c2,.3,3.9.6,5.9-.5,1.3-.7,3-.2,4.5-.5.3-.1.8.1,1.1-.5-2.6-.6-5,.6-7.4.5a35.63,35.63,0,0,0-7.3.1c-.4-.6.2-.8.7-1.3-3.5-.6-6.5.1-9.6,1,.5,1.2,1.2,1.9,2.4,1a1.326,1.326,0,0,1,2.1.5c.3,1.6,1.3,1.3,2.3,1.3a9.735,9.735,0,0,1,1.6.1c-1.8.8-3.6.6-5.1,1.6-.3.2-1.1-.1-1.7-.2-.4.4-.3,1.4-1.1,1.1-1.1-.4-2,.1-3,.1a14.741,14.741,0,0,1-7.4-1.3c-.7-.3-.5-1-1-1.3-1.9.6-3.3-.5-4.8-1.3a12.75,12.75,0,0,0,2-.1c.2-1,.2-1,1.8-1.3.1-.4-.4-.5-.4-.8,1.3-.5,2.7-.4,4.1-.8,1.2-.4,2.4.2,3.5.8a5.8,5.8,0,0,0,3.2.7c1,0,1.3-.4,1-1.4-1.1-.7-2.6.3-3.6-.9.6-.8,1.4-.7,2.2-.7,1.2-.1,2.5-.1,3.7-.1a50.351,50.351,0,0,0,6.7-.5c2.4-.4,4.9.1,7.4.3A12.288,12.288,0,0,0,220.9,18Z" fill="rgba(0,156,255,0.06)" stroke="rgba(0,48,101,0.85)" stroke-miterlimit="10" stroke-width="0.4"/>
      <path id="Path_13" data-name="Path 13" d="M707,219.2a3.09,3.09,0,0,1,1.6-1.9c1.1-.3.7-1.2.4-1.7a7.374,7.374,0,0,0-6-4.6c-1.9-.3-3.3-1.5-5.1-2.3-.4.4-.6,1.3-1.6,1.2-.2-1.2-.4-2.4-2-2.8.7-.8,2,.3,2.2-1.1-2,.4-2.4-1.9-4.1-2.2.9-1.7,2.5-2.4,3.9-1.8.4.2.8.3,1.3.5,1.1.3,1.8.7,1.4,2.1-.2.8,1.4,3.4,2.1,3.7.9.3,1.4-.4,1.7-1,.8-1.6,2.8-1.7,3.8-3,.4-.5.9-.1,1.4.1,3.5,1.7,7.2,2.6,10.8,3.9a22.989,22.989,0,0,1,5.2,2.6,1.542,1.542,0,0,1,.7,1.9c1.4,1.2,3.7.6,4.6,2.6-.4.7-1.2.2-1.7.8,0,.1-.1.2,0,.4a2.292,2.292,0,0,0,1.2,1.5,3.143,3.143,0,0,1,1.6,1.8c.2.4.4.9.9,1,1.8.3,2.6,2.1,4.1,2.9a.75.75,0,0,1,.1.5.636.636,0,0,1-1,.2,3.848,3.848,0,0,0-2.7-.9c-2.9-.1-4.7-1.7-6.2-4a4.151,4.151,0,0,0-5.3-.8,2.127,2.127,0,0,1-1.5.7c.3.5.5.8.7,1.2-.2.1-.4.3-.6.4a5.552,5.552,0,0,1-5.7-.7c-1.5-1.5-2.6-1.7-4.7-.8A2.275,2.275,0,0,1,707,219.2Z" fill="rgba(0,156,255,0.06)" stroke="rgba(0,48,101,0.85)" stroke-miterlimit="10" stroke-width="0.4"/>
      <path id="Path_14" data-name="Path 14" d="M664.8,198.6c-3.1.4-3.2.6-2.8,3.8a5.106,5.106,0,0,0-2.1,1.5,4.493,4.493,0,0,0-.6,1.2c-.4,3.4-.6,3.6-3.7,4.9-.4-.8-.4-2.4-2.2-1.5-.3.1-1-.8-1.7-1-.5.9-1.5.7-2.3,1-.4-.3-.1-.9-.7-1.3a4.985,4.985,0,0,1-3.2,0c-.1-.7-.1-1.5-.2-2.3-.1-.4,0-1-.4-1.3-1.1-.9-1.2-2.1-1.8-3.3-.8-1.7-.1-2.8.8-4.2.9.9,2.2.7,3.2,1.4.6-1.9,1.3-3.5,3.5-3.6.6,0,1.1-.5,1.6-1.1,1.2-1.6,2.4-3.2,4.6-3.4,0-1,1.1-1.2,1.5-1.9.5-.8,1.1-1.5,1.6-2.2.4.1,1.1-.1,1.3.3.7,2,2.8,2.1,4.2,3.2-.4,1-1.3.7-2,.9-.3.6.6.7.3,1.4-1.2,0-1.5,1.3-2.4,1.9.4,1.1,1.6,1.8,1.4,3.4C662.7,197.2,664.4,197.4,664.8,198.6Z" fill="rgba(0,156,255,0.06)" stroke="rgba(0,48,101,0.85)" stroke-miterlimit="10" stroke-width="0.4"/>
      <path id="Path_15" data-name="Path 15" d="M499.9,236.6c1.7-.7,3.5-.8,5-1.8,1.4-1,2.9-1.9,2.6-3.9,1.7-.1,1.9-.4,2.5-3,1,.4,2,1,2,2,0,2,1.8,3.9.7,6-.8,0-.8-.7-1.3-.8-.5.8.5,1.4.4,2.3-1.4,1.1-.9,2.9-1.4,4.4-1.3,3.8-2.5,7.6-3.7,11.5-.2.7-.4,1.4-.6,2-.4.9-.9,1.6-2,1.5a1.344,1.344,0,0,0-.9.2c-1.5,1.4-2.8.1-3.9-.5a2.917,2.917,0,0,1-1.3-3.2,2.827,2.827,0,0,0-.4-1.8c-.8-1.4-.6-2.3.5-3.5a10.886,10.886,0,0,0,1.4-2.3,2.789,2.789,0,0,0,.1-2.2c-.4-1.8-1.7-3.6-.1-5.4C499.9,237.5,499.5,237,499.9,236.6Z" fill="rgba(0,156,255,0.06)" stroke="rgba(0,48,101,0.85)" stroke-miterlimit="10" stroke-width="0.4"/>
      <path id="Path_16" data-name="Path 16" d="M696.1,128.3c-1-.6-1-1.3-1.4-1.8.6-1.6,2.7-.8,3.7-2.2-2.4-.4-4.3,1.4-6.6.9.2,1.3,1.1.8,1.7,1,.5,2.3-.4,4.1-2,5.7a2.513,2.513,0,0,0-1.4-.6,4.03,4.03,0,0,1,.7-3.1c-.5-1-1-.1-1.4-.2a1.74,1.74,0,0,1-1-1.3,9.49,9.49,0,0,0,3.4-2.2c1.1-.9,2.5-1.8,3.7-2.7.7-.5,1.5,0,2.3-.1,1.3-.2,2.6-.9,3.9-.1.3.2.9-.1,1-.4.3-1.3,1.8-1.7,1.9-3.1.1-.7.6-.9,1.3-.9.5.6-.7.9-.2,1.5a9.332,9.332,0,0,0,5.7-4.2,3.121,3.121,0,0,0,.5-2.5c-.4-1.9.4-2.6,2.4-2.2,0-.6-.5-1.1-.3-1.7-.9-.5-1,.8-1.9.5.2-.9-.4-1.6-.8-2.3.3-1.1,2.1-.7,1.6-2.2a13.635,13.635,0,0,0,1.7.4c-.2-1.2,1.4-1.6,1.2-2.9a3.177,3.177,0,0,0-.3-.9.8.8,0,0,1,.2-1.1c.5-.3.8,0,1.2.3a20.283,20.283,0,0,0,2.3,1.8c1.4.9,2.9,1.6,4.6.3-.6.9-.1,1.5.3,2.2-.8,1-1.8.8-2.8.9-1.1.1-1.5,1.4-2.3,2.1-1.7-.7-3.3-2.2-5.3-.6,1.4,1.5,1.9,3.6,2.7,5.6.4,1-.6,2.1-1.4,2.8-.8.6-1.2,1.1-.8,2.1a1.875,1.875,0,0,1-.4,1.6c-.2.4-.7.8-.4,1.2.8,1.6-.7,2-1.2,2.8-.7-.2-.3-.7-.6-1a2.4,2.4,0,0,0-1.9,1.6c-.5-.1-.7-.9-1.2-.4-1.2,1.2-2.4.6-3.6.1-.6.4.1.7.1,1.2-.9.3-1.8.7-2,1.8-2-.5-2.1-.6-1.9-2.4-.7-.1-1.5-.4-2.1.2,0,.9.9.5,1.1,1.3-.1.5-.5,1.5-1.2,1.3C697.3,126.2,696.6,127,696.1,128.3Z" fill="rgba(0,156,255,0.06)" stroke="rgba(0,48,101,0.85)" stroke-miterlimit="10" stroke-width="0.4"/>
      <path id="Path_17" data-name="Path 17" d="M635.8,205.7c-.2-.4-1-.1-.9-.8.1-.8.9-.5,1.5-.7-.1,1.4,1.8,1.8,1.4,3.3a10.339,10.339,0,0,0-1.2-.3c-.9,2.2-.1,4.4-.6,6.5h0a2.272,2.272,0,0,0-2.8.3c-1.2-1.4-2.8-2.5-4.1-3.9-1.7-1.8-3.9-3.1-4.6-5.8a6.828,6.828,0,0,0-2.8-3.9c-.9-.5-1-1.5-1.3-2.3a2.947,2.947,0,0,0-1.6-2c-.4-.1-.9-.4-.9-.6-.4-1.9-1.9-2.6-3.3-3.6a4.376,4.376,0,0,1-2-3.4c.6-.5,1-.2,1.4.1a2.485,2.485,0,0,0,2,.7c1.7-.4,2.6.7,3.2,1.9a3.416,3.416,0,0,0,1.4,1.5,8.187,8.187,0,0,1,3.2,2.6c.6,1,1.8.4,2.4,1.4.5.8,1.6,1.1,2.1,2.1.2.5.9.6,1.4.6a2.031,2.031,0,0,1,1.7,1.1c.2.7-.6,1.1-.7,1.7.3,1,1.4.6,2,1.2a3,3,0,0,0,2.6,2.9c.2.2.4.6.7.3C636.3,206.2,636,205.9,635.8,205.7Z" fill="rgba(0,156,255,0.06)" stroke="rgba(0,48,101,0.85)" stroke-miterlimit="10" stroke-width="0.4"/>
      <path id="Path_18" data-name="Path 18" d="M401.3,83.2c1.3-.5,2.6-.7,3.2.4.8,1.5-1.3,1.4-1.6,2.4.2.6.9.1,1.1.7a3.56,3.56,0,0,1-2.9,1.1c-2.3-.2-4.6.6-6.9.2-.2,0-.5,0-.6.1-1.1,1.6-2.7.2-4,.5.9-.9,1.7-2.1,3.5-1.9-1-1.4-2.5-.7-3.6-1.2.3-.8.9-.6,1.3-.8,1.1-.6,1.2-.8.1-1.7a4.47,4.47,0,0,1,3-.8c.2-.8.7-1.6-.6-2.1-.6-.2-.1-.8-.1-1.3a15.06,15.06,0,0,1-3.7.2c.4-.9,1.2-1.6.4-2.5-.9-.2-1.1.6-1.5,1.3-.3-1.2.3-1.9.6-2.8-.5-.1-1,.6-1.4.1a10.979,10.979,0,0,1,2.4-4.5c1.2.5,2.6-.4,4.1.1-.5,1.1-1.9.8-2.4,1.9h4.6c.4,1.6-1.5,2-1.4,3.5,1.2.5,2.4,1.1,2.8,2.5a1.107,1.107,0,0,0,.9.7c1.8.4,1.9,2.3,2.9,3.3C401.6,82.6,401.4,82.8,401.3,83.2Z" fill="rgba(0,156,255,0.06)" stroke="rgba(0,48,101,0.85)" stroke-miterlimit="10" stroke-width="0.4"/>
      <path id="Path_19" data-name="Path 19" d="M447.7,24.6c.2-.9.9-.5,1.1-1.2a35.548,35.548,0,0,0-6.5.1c1.4,1.5,3.4.8,4.8,1.8a1.274,1.274,0,0,1-1.1.5,3.153,3.153,0,0,0-3.4,1.7c-.3.6-.9.7-1.5.9-.4.1-.9.1-1.2.5-.6.7-1.1,1.6-2.2,1.2-1.5-.6-3.5-.2-4.5-1.8-.3-.5-1-.3-1.1-1.1a14.94,14.94,0,0,0,4-.8c-.8-.6-1.5-.9-2.3-.5-3,1.2-3.4,1.1-6.6-.4.1-.5.9-.1.8-.8-.8-.1-2,.6-2.7-.9,1.9-.2,3.6-1.1,5.3.1.5.3,1.3.6,1.6.2,1.2-1.3,2.2-.5,3.2.2a1.09,1.09,0,0,0,1.1.2c.3-.4-.4-.8.1-1.5,1.3.3,3-.3,4.1,1.4.6.1,1-.5,1.5-.5.2-.5-.3-.5-.4-.8.4-.6,3.5-1.5,4.2-1.2a10.519,10.519,0,0,0,6.1-.2c.4.7.9,1.2,1.9.6a2.3,2.3,0,0,1,2.4,0c.8.5,1.6.1,2.5.2a4.794,4.794,0,0,1,2.3.5C456.9,24.7,452.3,24.7,447.7,24.6Z" fill="rgba(0,156,255,0.06)" stroke="rgba(0,48,101,0.85)" stroke-miterlimit="10" stroke-width="0.4"/>
      <path id="Path_20" data-name="Path 20" d="M526.3,37.4c.2.7,0,1-.6,1.3-1.6.8-1.6,1.9-.3,3,.7.6,1.7.8,2.5,1.4-2.5.1-4.9.8-7.5-.1-.3-.4.5-.4.6-.8a5.533,5.533,0,0,0-3.8-.6c-.8.2-1.6.2-1.9-.8.8-1.2,2.7.1,3.3-1.5-.1-.4-.5-.2-.7-.4,1.1-1.2,2.8-.8,4.1-1.2.1-.8-.8-.4-.8-1,.2-.4.7-.5,1.1-.6a5.748,5.748,0,0,0,4.1-2.3,1.268,1.268,0,0,1,.9-.4c2.7-.4,5.1-1.8,7.9-1.6a2.794,2.794,0,0,0,1.7-.5,2.516,2.516,0,0,1,1.9-.3c2.8.5,5.6-.2,8.3-.6,1.6-.3,3.3-.5,4.9-.8a2.319,2.319,0,0,1,2.2.6c-.6.9-1.5.9-2.4,1.1-4.7.7-9.5,1.3-14.3,2-.8.1-1.7,0-2.2.9-.1.2-.6.5-.8.4-1.7-.3-3,1-4.5,1.3-.2,0-.5,0-.6.3C528.9,37.5,527.7,37.5,526.3,37.4Z" fill="rgba(0,156,255,0.06)" stroke="rgba(0,48,101,0.85)" stroke-miterlimit="10" stroke-width="0.4"/>
      <path id="Path_21" data-name="Path 21" d="M278.3,380.4a4.114,4.114,0,0,1,3-2.2c.8-.1,1.7-.2,2.5-.3,1.7-.1,3.3-.2,4.1-2.2.4-.9,1.5-1.2,2.4-1.4a42.543,42.543,0,0,1,10.1-.4,3.259,3.259,0,0,1,1.3.4,2.32,2.32,0,0,1,.1,4.5,12.171,12.171,0,0,1-3.8.7c-6.2.3-12.4.7-18.6,1A4.1,4.1,0,0,0,278.3,380.4Z" fill="rgba(0,156,255,0.06)" stroke="rgba(0,48,101,0.85)" stroke-miterlimit="10" stroke-width="0.4"/>
      <path id="Path_22" data-name="Path 22" d="M356.2,53.3c1,.8,1.7,1.3,2.5.4.1-.1.6-.2.7-.1,1.1.9,2.4-.4,3.5.2a.629.629,0,0,0,.6,0c2-1.6,3.6-.6,5.2.7.3.3,1,.2,1.5.3a1.085,1.085,0,0,1,.8.8,1.016,1.016,0,0,1-.5,1,25.44,25.44,0,0,1-7.2,2.4,6.456,6.456,0,0,0-1.9.4,4.6,4.6,0,0,1-3.8.2,17.582,17.582,0,0,0-5.6-.7c-.3,0-.5,0-.7-.3,0-.6.8-.4.8-1-.9-1.3-2.5-.2-3.8-.8,1.2-1,2.9.1,4-1.1-1.6-1.5-3.6.5-5.3-.8,1.2-.1,1.6-1.9,3-1,.3-.7.7-.9,1.6-.8,1.3.3,2.5.3,2,2.3C355,55.2,356.1,55.1,356.2,53.3Z" fill="rgba(0,156,255,0.06)" stroke="rgba(0,48,101,0.85)" stroke-miterlimit="10" stroke-width="0.4"/>
      <path id="Path_23" data-name="Path 23" d="M121.4,40.3c1.2-1.3,2.1-2.8,3.7-3.4-.2-1.1-1.3-1-1.6-2,3.2.2,6.3-.6,9.4.1a17.01,17.01,0,0,0,5,.5,10.53,10.53,0,0,1,6.1,1.4,14.7,14.7,0,0,1-2.6.5c-2.7.2-5.1,1.5-7.5,2.4-.7,2.2-2.7,1.6-4.2,2.1s-2.7.7-3.9-.4a4.845,4.845,0,0,0-2.7-.9A2.492,2.492,0,0,1,121.4,40.3Z" fill="rgba(0,156,255,0.06)" stroke="rgba(0,48,101,0.85)" stroke-miterlimit="10" stroke-width="0.4"/>
      <path id="Path_24" data-name="Path 24" d="M770.9,302.8a14.5,14.5,0,0,1,5.3-4.5c2.1-1,4.5-1.7,5.7-4.2.5-.9,1.7-1.4,1.9-2.7,0-.5.7-.4,1.2-.2.5.3.6.8.9,1.2.6.1,1.1-.5,1.8-.3,1.2,3.1-2,3.4-3.2,5,.1.3.7.2.6.9-2.3-.4-3.4,1-4.3,2.9-1.4,3.2-3.4,4-6.7,2.7-.6-.2-1.1-.6-1.8-.2C771.9,303.6,771.4,303.5,770.9,302.8Z" fill="rgba(0,156,255,0.06)" stroke="rgba(0,48,101,0.85)" stroke-miterlimit="10" stroke-width="0.4"/>
      <path id="Path_25" data-name="Path 25" d="M674.9,202.9c-1.7.2-2.5,1.6-4,2.3.9,1.1,1.9,2,1.7,3.6-.1.6.8.8.9,1.6-.9,0-1.5.7-2.2,1.2-1.3-.4-.1-1.9-1.2-2.3s-.5-1.4-.6-2.2c-.8-.3-1.4-.2-1.3.7.1,1.1-.2,2.2,0,3.3.3,1.8-.2,2.1-2.1,2.1-.7-1.4,1.7-3.7-1.2-4.8a2.567,2.567,0,0,1,.4-2.6,14.488,14.488,0,0,0,1.3-4.5c.3-1.9,1.7-2.5,2.9-3.4.3-.2.7,0,1.1.2a12.262,12.262,0,0,0,5.7.6,1.3,1.3,0,0,0,1.2-.8c.2-.4.5-1,1.1-.9-.3,2.4-1.9,3.6-4,3-1.9-.6-3.7-.1-5.6-.3-.7-.1-1.2.5-1.4,1.2a1.561,1.561,0,0,0,.4,1.8c.8.7,1.3,1.9,2.8.4.7-.7,2.5-.6,3.8-.9C674.7,202.1,674.9,202.4,674.9,202.9Z" fill="rgba(0,156,255,0.06)" stroke="rgba(0,48,101,0.85)" stroke-miterlimit="10" stroke-width="0.4"/>
      <path id="Path_26" data-name="Path 26" d="M196,31.9c-.6-.6-1.5-.6-1.9-1.5a15.038,15.038,0,0,1,7,.3c-.3.3-.4.5-.6.7a.31.31,0,0,1,.1.2,7.522,7.522,0,0,0,5.7.6,3.809,3.809,0,0,1,1.7.4,1.962,1.962,0,0,0,1.5.1,23.209,23.209,0,0,1,9.4-.9,20.849,20.849,0,0,1,5.2,1.3c-1.6.1-2.3,2.1-4.1,1.7-1.5-.3-3.2.4-4.4-1.5-.4,1.5-1.3,1.4-2.2,1.4a30.03,30.03,0,0,0-6.7.1,2.217,2.217,0,0,1-2.3-.6.967.967,0,0,0-1.4,0,3.523,3.523,0,0,1-3.3.2,2.4,2.4,0,0,0-1.5-.2C196.3,34.6,195.7,33.9,196,31.9Z" fill="rgba(0,156,255,0.06)" stroke="rgba(0,48,101,0.85)" stroke-miterlimit="10" stroke-width="0.4"/>
      <path id="Path_27" data-name="Path 27" d="M234,360.3a1.376,1.376,0,0,1,1.6-1.3h2.3c2.1,0,2.8-.5,3.4-2.4.3-1.1-1.1-1.2-1-2.1,1.8-1.4,3.5-1.4,5,0a31.894,31.894,0,0,1,2.6,2.6c1.7,1.8,1.1,3.8-1.4,4.6a18.743,18.743,0,0,1-5.8.5,6.079,6.079,0,0,1-1.9-.1c.3-.9,1.3-.7,1.8-1.5C238.4,359.4,236.1,362.1,234,360.3Z" fill="rgba(0,156,255,0.06)" stroke="rgba(0,48,101,0.85)" stroke-miterlimit="10" stroke-width="0.4"/>
      <path id="Path_28" data-name="Path 28" d="M269.2,94.2c1.2-.7,1.2-2.4,2.5-2.9.3-.1.3-.2.3-.5a6.321,6.321,0,0,1,4.9-4.9,4.331,4.331,0,0,1,.5.1,17.186,17.186,0,0,1-2.4,3.3c.9,0,2.2-.9,2.1,1,0,.3,1.2.8,1.9.4.9-.5,1.7-.1,2.6.1.3.8-.7.7-.7,1.3.3.8,1.1.2,1.6.3.2,1-.9.7-1,1.4a3.93,3.93,0,0,1,2.1,1.3,2.127,2.127,0,0,1-.7,1.5c-.8.2-1.4-.6-2.2-.6-.2-.4.4-.9-.1-1.4-1.4,0-2.2,2-3.9,1.5.3-.7,1.3-.5,1.5-1.4C275.4,94.6,272.4,94.6,269.2,94.2Z" fill="rgba(0,156,255,0.06)" stroke="rgba(0,48,101,0.85)" stroke-miterlimit="10" stroke-width="0.4"/>
      <path id="Path_29" data-name="Path 29" d="M147.4,34.3c1.9-.7,3.9-.6,5.9-1-4.3-.6-8.7.8-13-.3.3-.8,1-.6,1.4-.7.5-.2,1.5.1,1.1-1.1-.1-.3.3-.4.6-.4,1.6-.2,3.2-.8,4.8.1,1.1.6,2.3-.3,3.4.4,1.7,1.2,3.7,1,5.7,1a1.19,1.19,0,0,0,1.1-.4c-.5-.9-1.5-.9-2.4-1.3a4.589,4.589,0,0,1,2.5-1c.7,0,1.4,0,1.7.7.7,1.8,2.3,1.6,3.4,1.2a4.037,4.037,0,0,1,2.9.2c.3,1.3-.3,1.8-1.4,2a9.162,9.162,0,0,1-3.3.1c-2.5-.5-4.8.2-7.1.7A12.115,12.115,0,0,1,147.4,34.3Z" fill="rgba(0,156,255,0.06)" stroke="rgba(0,48,101,0.85)" stroke-miterlimit="10" stroke-width="0.4"/>
      <path id="Path_30" data-name="Path 30" d="M797.8,284.4c-.3,2.4-.8,2.9-3.2,3.6,0,2.1-1.7,3.1-2.9,4.5a1.278,1.278,0,0,1-2.2-.2c0-.7.7-1.2.9-2-.5-1.4-2.4-1-3.3-2.3a3.1,3.1,0,0,0,2.3-3.1,5.18,5.18,0,0,0-1.9-3.7,7.02,7.02,0,0,1-2.2-2.9c2.2-.1,2.9.4,3.7,2.2.2.5.5,1.1.7,1.6.4,1.1,1,.9,1.9.3C792.7,285.8,795.1,285.4,797.8,284.4Z" fill="rgba(0,156,255,0.06)" stroke="rgba(0,48,101,0.85)" stroke-miterlimit="10" stroke-width="0.4"/>
      <path id="Path_31" data-name="Path 31" d="M377.9,84.5c1.4-.3,1.4-.3,2.1-2.1-.3-.6-1-.2-1.4-.6.5-.6.1-1.2-.2-1.8,1.1-.5,2-.1,3-.3.8-1.8,1-1.9,3.1-1.8.4,0,.9-.2,1.3-.2,1-.1,2-.1,2.4,1.1.4,1.1-.2,1.7-1.1,2a5.349,5.349,0,0,1,.4,1.6c0,.9-.2,1.8-1.2,1.9-1.9.2-3.5,1.2-5.4,1.6C379.4,86.3,378.8,86.1,377.9,84.5Z" fill="rgba(0,156,255,0.06)" stroke="rgba(0,48,101,0.85)" stroke-miterlimit="10" stroke-width="0.4"/>
      <path id="Path_32" data-name="Path 32" d="M716.2,98.3c-.6-.5-.5-1.1-.4-1.8.2-1.3.9-2.6.3-4a1.412,1.412,0,0,1,.1-.9c.6-2.1,1.2-4.3-.3-6.3a1.36,1.36,0,0,1,0-1.5,1.8,1.8,0,0,0,0-1.6c.7-.4,1.5-.3,2.1-.8,1,.8,1.5,1.7,1,2.8a2.691,2.691,0,0,0,.3,2.6,51.423,51.423,0,0,0,2.9,5.1c-.4.3-.6-.1-.9-.2-.9-.3-1.9-1.2-2.8-.1a3.459,3.459,0,0,0,.1,4,5.548,5.548,0,0,0,.8.6,1.266,1.266,0,0,1,.2,1.8c-.6-.3-.8-1.4-1.8-1.1C717,97.2,717,98.1,716.2,98.3Z" fill="rgba(0,156,255,0.06)" stroke="rgba(0,48,101,0.85)" stroke-miterlimit="10" stroke-width="0.4"/>
      <path id="Path_33" data-name="Path 33" d="M668.6,168.2c-1.8-.7-1.4-2.4-1.7-3.8.3-.6.7.1,1.1-.1.1-1.1.2-2.3.3-3.5.2-1.5.7-1.9,2-1.3.6.3,1.3.1,1.9.3,0,.8-.3,1.6.4,2.4s0,1.6-.6,2.2c-1.9,2.1-2,2.2-.2,5,.8-.5,1.7-1.2,2.4.3.2.4.8-.3,1.4,0-.3.7.1,1.3.5,1.9-1.5.9-1.4-1.9-3-1.1-.9.5-1.9-1.8-3-.1a1.856,1.856,0,0,1,0,2.8c-.9-.5-.9-1.6-1.4-2.3,0-.6.6-.2.9-.7.1-.6-1.2-.9-.5-1.7.3-.1.5-.3.3-.5A.54.54,0,0,0,668.6,168.2Z" fill="rgba(0,156,255,0.06)" stroke="rgba(0,48,101,0.85)" stroke-miterlimit="10" stroke-width="0.4"/>
      <path id="Path_34" data-name="Path 34" d="M635.9,213.7c1.6.8,3.5.2,5.1,1,.2.1.5,0,.8.3a3.567,3.567,0,0,0,5.2,0,3.672,3.672,0,0,0,2,.9c.9.1,1.9.1,2.2,1.4.1.6,1,.7,1.7.7a4.845,4.845,0,0,1,1.7,0c.2.6-.3,1.1.1,1.8-2.2-1-4.5-.3-6.7-.7a5.549,5.549,0,0,1-2.2-.6,6.4,6.4,0,0,0-4.3-.7c-.9.2-3.2-.8-4.4-1.7-.6-.4-1.3-.2-1.9-.4.2-.6,1.3-1.1.7-2Z" fill="rgba(0,156,255,0.06)" stroke="rgba(0,48,101,0.85)" stroke-miterlimit="10" stroke-width="0.4"/>
      <path id="Path_35" data-name="Path 35" d="M213.1,152.1a2.511,2.511,0,0,1,2.3-2.5c3.2-.8,6.4-.9,9.4.9.9.5,2.2.5,3.1,1.1a23.484,23.484,0,0,0,4,1.8c1.3.7,2.9,1,4.1,2.1-2.4,1.2-4.8.3-7.1.8-.3-.8.6-.9.5-1.5-.3-.6-.8-.5-1.3-.5-.5-.1-1.2-.1-1.3-.6-.3-1.3-1.2-1.2-2.3-1.3-1.8-.2-3.4-1.4-5.3-1.2-2-2.2-3.4.1-5,.7A3.594,3.594,0,0,0,213.1,152.1Z" fill="rgba(0,156,255,0.06)" stroke="rgba(0,48,101,0.85)" stroke-miterlimit="10" stroke-width="0.4"/>
      <path id="Path_36" data-name="Path 36" d="M172.8,38.6c.8-1,1.5-.6,2.2-.3a2.5,2.5,0,0,0,3.3-.6c-.3-.7-1.3-.4-1.7-1.4h8.8c-.6.9-1.5.9-2.4,1.5,1.1.8,2.6.4,3.7,1.2-.8,1.2-1.1,2.9-3.2,2.1-1.9,1.7-3.4.1-5-.6a5.549,5.549,0,0,0-2.2-.6A7.188,7.188,0,0,1,172.8,38.6Z" fill="rgba(0,156,255,0.06)" stroke="rgba(0,48,101,0.85)" stroke-miterlimit="10" stroke-width="0.4"/>
      <path id="Path_37" data-name="Path 37" d="M219.4,58.2a5.889,5.889,0,0,1,3.4.6c-2.5,1.4-4.5,0-6.6-1-.9,1.4-2.6,1.5-3.9,2.2-.9.5-1.3-.4-1.6-1.1-1.1.1-2.1.3-3.2.4.1-1.3,1.3-.9,1.9-1.5a3.124,3.124,0,0,1,.6-2.4c1-1.6,1.3-1.6,2.3,0C214.4,55,218.7,56.7,219.4,58.2Z" fill="rgba(0,156,255,0.06)" stroke="rgba(0,48,101,0.85)" stroke-miterlimit="10" stroke-width="0.4"/>
      <path id="Path_38" data-name="Path 38" d="M673.2,183.6c-.6.5-.6,1.2-1.2,1.5-.3-1.3-.2-1.6,1-2.4,1-.6,1.9-2,3.2-.1.9-1.5,3.2-1.4,3.5-3.4a5.145,5.145,0,0,1,1.3,6.6c-.5-.2-.5-.7-.8-1-1.7.9.7,2.6-1,3.5-.4,0-.4-.9-1.4-.8-1.2.1-1.9-1.2-1.6-2.5a.955.955,0,0,0-.4-1.3.823.823,0,0,0-1.2.1C674.3,184.2,673.8,183.9,673.2,183.6Z" fill="rgba(0,156,255,0.06)" stroke="rgba(0,48,101,0.85)" stroke-miterlimit="10" stroke-width="0.4"/>
      <path id="Path_39" data-name="Path 39" d="M239.5,159.1q-.15-1.05-.3-1.8c-.4-.6-1.3-.1-1.5-1,4.1-.1,8.1-.3,11.4,2.9-.2.5-.4,1-1,.7-1.1-.7-2.1-.2-3.1-.2a2.5,2.5,0,0,0-2.7,1.6c-1.4-1.9-3.2-1.1-4.9-1.3-1-.1-1,.1-1.8-.9C236.8,158.5,238.1,159.5,239.5,159.1Z" fill="rgba(0,156,255,0.06)" stroke="rgba(0,48,101,0.85)" stroke-miterlimit="10" stroke-width="0.4"/>
      <path id="Path_40" data-name="Path 40" d="M199.9,36.3a7.021,7.021,0,0,1-7,2.3,1.98,1.98,0,0,1-3,1.3c-.7-.6-1.8-1.3-1.4-2.3a2.988,2.988,0,0,1,2.4-1.9,10.819,10.819,0,0,1,1.8,0,26.258,26.258,0,0,0,5.6.2A1.955,1.955,0,0,1,199.9,36.3Z" fill="rgba(0,156,255,0.06)" stroke="rgba(0,48,101,0.85)" stroke-miterlimit="10" stroke-width="0.4"/>
      <path id="Path_41" data-name="Path 41" d="M730.2,291.2c1.2,3.5-1.2,4.8-3.2,6.4-1.1-.2-2.3-.5-2.6-1.6-.4-1.6-1.6-2.8-2.1-4.8C725.1,291.9,727.6,292.7,730.2,291.2Z" fill="rgba(0,156,255,0.06)" stroke="rgba(0,48,101,0.85)" stroke-miterlimit="10" stroke-width="0.4"/>
      <path id="Path_42" data-name="Path 42" d="M143.7,28.2a8.346,8.346,0,0,1-3.2,2.3c-.8.2-1.3.3-1.9-.3a1.236,1.236,0,0,0-1.9-.2c-1.5,1.3-3.1,2.3-5.2,1.1-.3-.2-.9.1-1.3.1-.7.1-1.4.2-1.9-.6A41.147,41.147,0,0,1,143.7,28.2Z" fill="rgba(0,156,255,0.06)" stroke="rgba(0,48,101,0.85)" stroke-miterlimit="10" stroke-width="0.4"/>
      <path id="Path_43" data-name="Path 43" d="M181,27.3c-1.4.6-2.5.7-3.4.1a6.229,6.229,0,0,0-3.5-.8h-4.3a2.474,2.474,0,0,1-2.1-.7c.6-.8,1.6.1,2.3-.6-1-.8-2.4-.4-3.4-1.1a7.449,7.449,0,0,1,5.1,0,11.9,11.9,0,0,0,4.5.8A6.136,6.136,0,0,1,181,27.3Z" fill="rgba(0,156,255,0.06)" stroke="rgba(0,48,101,0.85)" stroke-miterlimit="10" stroke-width="0.4"/>
      <path id="Path_44" data-name="Path 44" d="M579.2,179.1c2,1.2,2.7,3.4,3.6,5.5.4,1.1-.9,2.5-2.2,2.7-1.1.2-1.7-.2-2-1.7C578.2,183.4,577.6,181.2,579.2,179.1Z" fill="rgba(0,156,255,0.06)" stroke="rgba(0,48,101,0.85)" stroke-miterlimit="10" stroke-width="0.4"/>
      <path id="Path_45" data-name="Path 45" d="M173,32.1c.8-.6,2-.4,1.7-1.7,1.2-.1,2.3.9,3.2-.2.2-.2,1-.1,1.5,0a3.62,3.62,0,0,0,2.3,0,1.636,1.636,0,0,1,2.1.6c.4.8,0,1.3-.6,1.8-.2.2-.2.6-.3,1-1.7-.1-3.3.3-5-.1-.3-.6.6-.7.3-1.3C176.7,31.7,174.9,32.9,173,32.1Z" fill="rgba(0,156,255,0.06)" stroke="rgba(0,48,101,0.85)" stroke-miterlimit="10" stroke-width="0.4"/>
      <path id="Path_46" data-name="Path 46" d="M36.2,376.9c3.2-1.8,7.3-1.5,12,.7C44.1,379.5,40.3,377.7,36.2,376.9Z" fill="rgba(0,156,255,0.06)" stroke="rgba(0,48,101,0.85)" stroke-miterlimit="10" stroke-width="0.4"/>
      <path id="Path_47" data-name="Path 47" d="M172.7,360.8c5.2-.9,10.1-1.5,14.9.5C182.7,362.3,177.9,361.6,172.7,360.8Z" fill="rgba(0,156,255,0.06)" stroke="rgba(0,48,101,0.85)" stroke-miterlimit="10" stroke-width="0.4"/>
      <path id="Path_48" data-name="Path 48" d="M669.1,151.9c-2.4-3.2-1.7-5.6,2.1-7.4C671.6,147.3,670,149.4,669.1,151.9Z" fill="rgba(0,156,255,0.06)" stroke="rgba(0,48,101,0.85)" stroke-miterlimit="10" stroke-width="0.4"/>
      <path id="Path_49" data-name="Path 49" d="M738.6,213.1a4.223,4.223,0,0,0-2,.8c-1.6,1.3-4,1-6.1-.8,1.3-.4,2.6-.1,3.9-.3s2.8-.6,3.3-2c.3-.8.8-.6,1.2-.6a.682.682,0,0,1,.4,1.2C738.7,212,738.9,212.6,738.6,213.1Z" fill="rgba(0,156,255,0.06)" stroke="rgba(0,48,101,0.85)" stroke-miterlimit="10" stroke-width="0.4"/>
      <path id="Path_50" data-name="Path 50" d="M644,160.2c-.8-.3-1.7-.5-1.8-1.7,0-1.2.9-1.5,1.6-1.9,1.5-.8,2.5-.8,3.5,0C646.4,158,645.8,159.7,644,160.2Z" fill="rgba(0,156,255,0.06)" stroke="rgba(0,48,101,0.85)" stroke-miterlimit="10" stroke-width="0.4"/>
      <path id="Path_51" data-name="Path 51" d="M683.4,219.7c-2.6,1.3-5.3,2.2-7.8,4.4C675.7,221.1,679.4,219.2,683.4,219.7Z" fill="rgba(0,156,255,0.06)" stroke="rgba(0,48,101,0.85)" stroke-miterlimit="10" stroke-width="0.4"/>
      <path id="Path_52" data-name="Path 52" d="M182.1,25.4c2.8-.4,5.2.2,7.8.8A6.067,6.067,0,0,1,182.1,25.4Z" fill="rgba(0,156,255,0.06)" stroke="rgba(0,48,101,0.85)" stroke-miterlimit="10" stroke-width="0.4"/>
      <path id="Path_53" data-name="Path 53" d="M686.4,202.8c-2.3-1.7-2.8-4.3-1.5-6.3.1,0,.3,0,.3.1.3.2.3.6.3.9.4.4.8-.5,1.2,0,.6.7-1.3,1.6.3,2.2-.5.7-1.2-.2-1.8.6C685.1,201,685.8,201.7,686.4,202.8Z" fill="rgba(0,156,255,0.06)" stroke="rgba(0,48,101,0.85)" stroke-miterlimit="10" stroke-width="0.4"/>
      <path id="Path_54" data-name="Path 54" d="M674.7,180.5a3.352,3.352,0,0,1-2-1.3c.3-.8,1.4-1.3,1-2.6-.7-.1-1.1.7-1.9.6.1-.9.1-1.8.2-2.7,1,.4,2.1.4,2.6,1.7.1.4.5.7.3,1.1A3.863,3.863,0,0,0,674.7,180.5Z" fill="rgba(0,156,255,0.06)" stroke="rgba(0,48,101,0.85)" stroke-miterlimit="10" stroke-width="0.4"/>
      <path id="Path_55" data-name="Path 55" d="M231.4,51.1h-.6c-.6,0-1.2-.1-1.4-.8-.1-.7.5-1,1-1.3a3.474,3.474,0,0,1,3-.2c.5.2.8.4.8.9a.9.9,0,0,1-.7,1A4.126,4.126,0,0,1,231.4,51.1Z" fill="rgba(0,156,255,0.06)" stroke="rgba(0,48,101,0.85)" stroke-miterlimit="10" stroke-width="0.4"/>
      <path id="Path_56" data-name="Path 56" d="M157.1,27.3a8.931,8.931,0,0,1-7.5.4A17.324,17.324,0,0,1,157.1,27.3Z" fill="rgba(0,156,255,0.06)" stroke="rgba(0,48,101,0.85)" stroke-miterlimit="10" stroke-width="0.4"/>
      <path id="Path_57" data-name="Path 57" d="M192.4,30.7c-2.2,0-4.4.1-6.7-1.4a15.826,15.826,0,0,1,6.9.6A3.092,3.092,0,0,0,192.4,30.7Z" fill="rgba(0,156,255,0.06)" stroke="rgba(0,48,101,0.85)" stroke-miterlimit="10" stroke-width="0.4"/>
      <path id="Path_58" data-name="Path 58" d="M667.2,219.9c.6-1.1,1.4-.9,2.1-.7,1.7.6,3.3.7,4.9-1.1C673.3,220.5,670.1,221.2,667.2,219.9Z" fill="rgba(0,156,255,0.06)" stroke="rgba(0,48,101,0.85)" stroke-miterlimit="10" stroke-width="0.4"/>
      <path id="Path_59" data-name="Path 59" d="M662.5,218.2c1.1.9,2.4.4,2.9,1.8-1.4.3-2.8.6-4.1.9-.5.1-1,.1-1-.6s.4-.9,1-.9C661.8,219.4,662.9,220.2,662.5,218.2Z" fill="rgba(0,156,255,0.06)" stroke="rgba(0,48,101,0.85)" stroke-miterlimit="10" stroke-width="0.4"/>
      <path id="Path_60" data-name="Path 60" d="M685.5,207.2c1.6,0,3.1-.1,4.5,0a1.685,1.685,0,0,1,1.7,1.7c-.2.3-.5.2-.7,0-1.2-1.1-2.8-.7-4.2-.8C685.9,208.2,685.8,207.9,685.5,207.2Z" fill="rgba(0,156,255,0.06)" stroke="rgba(0,48,101,0.85)" stroke-miterlimit="10" stroke-width="0.4"/>
      <path id="Path_61" data-name="Path 61" d="M97.4,71.6c1-.9,2.5-.6,2.7-.1.5,1,1.6,2,1.1,3.6-.9-.9-1.5-1.6-1.3-2.9C98.9,72.8,98.2,72.6,97.4,71.6Z" fill="rgba(0,156,255,0.06)" stroke="rgba(0,48,101,0.85)" stroke-miterlimit="10" stroke-width="0.4"/>
      <path id="Path_62" data-name="Path 62" d="M57.2,73.3c1.4-1.1,3.7-1.5,4.9-.8C58.4,73.9,58.4,73.9,57.2,73.3Z" fill="rgba(0,156,255,0.06)" stroke="rgba(0,48,101,0.85)" stroke-miterlimit="10" stroke-width="0.4"/>
      <path id="Path_63" data-name="Path 63" d="M18.8,59.1a13.124,13.124,0,0,1,6.2.5c-1.6.7-1.6.7-2.7.3C21.1,59.4,19.9,59.6,18.8,59.1Z" fill="rgba(0,156,255,0.06)" stroke="rgba(0,48,101,0.85)" stroke-miterlimit="10" stroke-width="0.4"/>
      <path id="Path_64" data-name="Path 64" d="M54.4,155.4c1.1.1,1.6.9,2.3,1.7-.8.5-1.4.9-2.1,1.3A2.286,2.286,0,0,1,54.4,155.4Z" fill="rgba(0,156,255,0.06)" stroke="rgba(0,48,101,0.85)" stroke-miterlimit="10" stroke-width="0.4"/>
      <path id="Path_65" data-name="Path 65" d="M231.3,160.5c-1.5,0-3.1.9-4.2-1C228.7,159,230,159.7,231.3,160.5Z" fill="rgba(0,156,255,0.06)" stroke="rgba(0,48,101,0.85)" stroke-miterlimit="10" stroke-width="0.4"/>
      <path id="Path_66" data-name="Path 66" d="M677.2,172.9a2.3,2.3,0,0,1,2-.1c.2.9.4,1.8.6,2.8C678.7,175.3,678.7,175.3,677.2,172.9Z" fill="rgba(0,156,255,0.06)" stroke="rgba(0,48,101,0.85)" stroke-miterlimit="10" stroke-width="0.4"/>
      <path id="Path_67" data-name="Path 67" d="M669.2,223.2c-1.9.8-2.6-1.1-3.9-1C667,221.2,667.4,221.3,669.2,223.2Z" fill="rgba(0,156,255,0.06)" stroke="rgba(0,48,101,0.85)" stroke-miterlimit="10" stroke-width="0.4"/>
      <path id="Path_68" data-name="Path 68" d="M349.6,40.3c-.1-.9-1.2-.4-1.4-1.2a5.238,5.238,0,0,1,4.2.8c-.2.7-.7.5-1.1.5-.5-.1-1.1-.8-1.7-.1Z" fill="rgba(0,156,255,0.06)" stroke="rgba(0,48,101,0.85)" stroke-miterlimit="10" stroke-width="0.4"/>
      <path id="Path_69" data-name="Path 69" d="M251.7,159.3a9.465,9.465,0,0,1,3.3.3c-.7,1.4-1.9.9-2.8,1C251.4,160.7,251.6,159.9,251.7,159.3Z" fill="rgba(0,156,255,0.06)" stroke="rgba(0,48,101,0.85)" stroke-miterlimit="10" stroke-width="0.4"/>
      <path id="Path_70" data-name="Path 70" d="M107.3,78.5c-1.3-.6-2.8-1-2.8-3C106.1,75.8,106.7,77.2,107.3,78.5Z" fill="rgba(0,156,255,0.06)" stroke="rgba(0,48,101,0.85)" stroke-miterlimit="10" stroke-width="0.4"/>
      <path id="Path_71" data-name="Path 71" d="M38.3,78.1c-.1.2-.1.6-.2.7a14.355,14.355,0,0,1-3.6.7c1-1.3,2.4-1.3,3.8-1.4Z" fill="rgba(0,156,255,0.06)" stroke="rgba(0,48,101,0.85)" stroke-miterlimit="10" stroke-width="0.4"/>
      <path id="Path_72" data-name="Path 72" d="M105,80.7c1-.8,1.8,0,2.7-.4.1.9.1,1.5-.7,1.7C105.9,82.3,105.6,81.4,105,80.7Z" fill="rgba(0,156,255,0.06)" stroke="rgba(0,48,101,0.85)" stroke-miterlimit="10" stroke-width="0.4"/>
      <path id="Path_73" data-name="Path 73" d="M664.3,178.8c-.4,1.5-1.6,2.2-3.2,3.2C661.8,180.1,663.3,179.7,664.3,178.8Z" fill="rgba(0,156,255,0.06)" stroke="rgba(0,48,101,0.85)" stroke-miterlimit="10" stroke-width="0.4"/>
      <path id="Path_74" data-name="Path 74" d="M683.5,208.7a1.636,1.636,0,0,1-2.5-.5C682.4,207.3,682.4,207.3,683.5,208.7Z" fill="rgba(0,156,255,0.06)" stroke="rgba(0,48,101,0.85)" stroke-miterlimit="10" stroke-width="0.4"/>
      <path id="Path_75" data-name="Path 75" d="M665,178a5.28,5.28,0,0,0,.7-2.6c.9.5.6,1.2,1,1.6A2.333,2.333,0,0,1,665,178Z" fill="rgba(0,156,255,0.06)" stroke="rgba(0,48,101,0.85)" stroke-miterlimit="10" stroke-width="0.4"/>
      <path id="Path_76" data-name="Path 76" d="M201.7,135a1.28,1.28,0,0,1,1.3.7c-.7.4-1.1,0-1.5-.5Z" fill="rgba(0,156,255,0.06)" stroke="rgba(0,48,101,0.85)" stroke-miterlimit="10" stroke-width="0.4"/>
      <path id="Path_77" data-name="Path 77" d="M695.6,226.3a2.112,2.112,0,0,1-1-.4c.5-.6.8-.2,1.1.2A.349.349,0,0,1,695.6,226.3Z" fill="rgba(0,156,255,0.06)" stroke="rgba(0,48,101,0.85)" stroke-miterlimit="10" stroke-width="0.4"/>
      <path id="Path_78" data-name="Path 78" d="M116.4,43.8a.735.735,0,0,1-.6-.2c.3-.2.5-.2.7.1A.1.1,0,0,0,116.4,43.8Z" fill="rgba(0,156,255,0.06)" stroke="rgba(0,48,101,0.85)" stroke-miterlimit="10" stroke-width="0.4"/>
      <path id="Path_79" data-name="Path 79" d="M232.5,117.2c0,.2,0,.6-.3.4-.2-.1-.1-.4.1-.6C232.4,117.1,232.4,117.2,232.5,117.2Z" fill="rgba(0,156,255,0.06)" stroke="rgba(0,48,101,0.85)" stroke-miterlimit="10" stroke-width="0.4"/>
      <path id="Path_80" data-name="Path 80" d="M38.3,78.2l.2-.2c-.3-.2-.2.1-.2.2Z" fill="rgba(0,156,255,0.06)" stroke="rgba(0,48,101,0.85)" stroke-miterlimit="10" stroke-width="0.4"/>
      <path id="Path_81" data-name="Path 81" d="M381.3,118.1c-.1.1-.2.2-.3.2-.2-.1-.1-.3,0-.5Z" fill="rgba(0,156,255,0.06)" stroke="rgba(0,48,101,0.85)" stroke-miterlimit="10" stroke-width="0.4"/>
      <path id="Path_82" data-name="Path 82" d="M421.6,109c1.5.8.8,2.1.9,3.1.2,1.6-1.5,1.1-2.2,1.9-1.7-1.1.6-3.1-1.4-4A10.252,10.252,0,0,0,421.6,109Z" fill="rgba(0,156,255,0.06)" stroke="rgba(0,48,101,0.85)" stroke-miterlimit="10" stroke-width="0.4"/>
      <path id="Path_83" data-name="Path 83" d="M477,121.1c-3.2,2.8-3.5,2.9-4.8,1.5C473.5,121.3,475.5,122.1,477,121.1Z" fill="rgba(0,156,255,0.06)" stroke="rgba(0,48,101,0.85)" stroke-miterlimit="10" stroke-width="0.4"/>
      <path id="Path_84" data-name="Path 84" d="M459.2,122.2c-2.1,1.2-4,.1-6-.5C455.2,121.3,457.2,122.1,459.2,122.2Z" fill="rgba(0,156,255,0.06)" stroke="rgba(0,48,101,0.85)" stroke-miterlimit="10" stroke-width="0.4"/>
      <path id="Path_85" data-name="Path 85" d="M421.7,104.9a3.746,3.746,0,0,1-.3,3.7,1.818,1.818,0,0,1-1.3-2.3C420.4,105.6,421.3,105.8,421.7,104.9Z" fill="rgba(0,156,255,0.06)" stroke="rgba(0,48,101,0.85)" stroke-miterlimit="10" stroke-width="0.4"/>
    </g>
    <line id="Line_1" data-name="Line 1" x2="800" transform="translate(0 33.3)" fill="none" stroke="rgba(0,48,101,0.5)" stroke-miterlimit="10" stroke-width="0.3"/>
    <line id="Line_2" data-name="Line 2" x2="800" transform="translate(0 66.7)" fill="none" stroke="rgba(0,48,101,0.5)" stroke-miterlimit="10" stroke-width="0.3"/>
    <line id="Line_3" data-name="Line 3" x2="800" transform="translate(0 100)" fill="none" stroke="rgba(0,48,101,0.5)" stroke-miterlimit="10" stroke-width="0.3"/>
    <line id="Line_4" data-name="Line 4" x2="800" transform="translate(0 133.3)" fill="none" stroke="rgba(0,48,101,0.5)" stroke-miterlimit="10" stroke-width="0.3"/>
    <line id="Line_5" data-name="Line 5" x2="800" transform="translate(0 166.7)" fill="none" stroke="rgba(0,48,101,0.5)" stroke-miterlimit="10" stroke-width="0.3"/>
    <line id="Line_6" data-name="Line 6" x2="800" transform="translate(0 200)" fill="none" stroke="rgba(0,48,101,0.5)" stroke-miterlimit="10" stroke-width="0.3"/>
    <line id="Line_7" data-name="Line 7" x2="800" transform="translate(0 233.3)" fill="none" stroke="rgba(0,48,101,0.5)" stroke-miterlimit="10" stroke-width="0.3"/>
    <line id="Line_8" data-name="Line 8" x2="800" transform="translate(0 266.7)" fill="none" stroke="rgba(0,48,101,0.5)" stroke-miterlimit="10" stroke-width="0.3"/>
    <line id="Line_9" data-name="Line 9" x2="800" transform="translate(0 300)" fill="none" stroke="rgba(0,48,101,0.5)" stroke-miterlimit="10" stroke-width="0.3"/>
    <line id="Line_10" data-name="Line 10" x2="800" transform="translate(0 333.3)" fill="none" stroke="rgba(0,48,101,0.5)" stroke-miterlimit="10" stroke-width="0.3"/>
    <line id="Line_11" data-name="Line 11" x2="800" transform="translate(0 366.7)" fill="none" stroke="rgba(0,48,101,0.5)" stroke-miterlimit="10" stroke-width="0.3"/>
    <line id="Line_12" data-name="Line 12" y2="400" transform="translate(1)" fill="none" stroke="rgba(0,48,101,0.5)" stroke-miterlimit="10" stroke-width="0.3"/>
    <line id="Line_13" data-name="Line 13" y2="400" transform="translate(33.3)" fill="none" stroke="rgba(0,48,101,0.5)" stroke-miterlimit="10" stroke-width="0.3"/>
    <line id="Line_14" data-name="Line 14" y2="400" transform="translate(66.7)" fill="none" stroke="rgba(0,48,101,0.5)" stroke-miterlimit="10" stroke-width="0.3"/>
    <line id="Line_15" data-name="Line 15" y2="400" transform="translate(100)" fill="none" stroke="rgba(0,48,101,0.5)" stroke-miterlimit="10" stroke-width="0.3"/>
    <line id="Line_16" data-name="Line 16" y2="400" transform="translate(133.3)" fill="none" stroke="rgba(0,48,101,0.5)" stroke-miterlimit="10" stroke-width="0.3"/>
    <line id="Line_17" data-name="Line 17" y2="400" transform="translate(166.7)" fill="none" stroke="rgba(0,48,101,0.5)" stroke-miterlimit="10" stroke-width="0.3"/>
    <line id="Line_18" data-name="Line 18" y2="400" transform="translate(200)" fill="none" stroke="rgba(0,48,101,0.5)" stroke-miterlimit="10" stroke-width="0.3"/>
    <line id="Line_19" data-name="Line 19" y2="400" transform="translate(233.3)" fill="none" stroke="rgba(0,48,101,0.5)" stroke-miterlimit="10" stroke-width="0.3"/>
    <line id="Line_20" data-name="Line 20" y2="400" transform="translate(266.7)" fill="none" stroke="rgba(0,48,101,0.5)" stroke-miterlimit="10" stroke-width="0.3"/>
    <line id="Line_21" data-name="Line 21" y2="400" transform="translate(300)" fill="none" stroke="rgba(0,48,101,0.5)" stroke-miterlimit="10" stroke-width="0.3"/>
    <line id="Line_22" data-name="Line 22" y2="400" transform="translate(333.3)" fill="none" stroke="rgba(0,48,101,0.5)" stroke-miterlimit="10" stroke-width="0.3"/>
    <line id="Line_23" data-name="Line 23" y2="400" transform="translate(366.7)" fill="none" stroke="rgba(0,48,101,0.5)" stroke-miterlimit="10" stroke-width="0.3"/>
    <line id="Line_24" data-name="Line 24" y2="400" transform="translate(400)" fill="none" stroke="rgba(0,48,101,0.5)" stroke-miterlimit="10" stroke-width="0.3"/>
    <line id="Line_25" data-name="Line 25" y2="400" transform="translate(433.3)" fill="none" stroke="rgba(0,48,101,0.5)" stroke-miterlimit="10" stroke-width="0.3"/>
    <line id="Line_26" data-name="Line 26" y2="400" transform="translate(466.7)" fill="none" stroke="rgba(0,48,101,0.5)" stroke-miterlimit="10" stroke-width="0.3"/>
    <line id="Line_27" data-name="Line 27" y2="400" transform="translate(500)" fill="none" stroke="rgba(0,48,101,0.5)" stroke-miterlimit="10" stroke-width="0.3"/>
    <line id="Line_28" data-name="Line 28" y2="400" transform="translate(533.3)" fill="none" stroke="rgba(0,48,101,0.5)" stroke-miterlimit="10" stroke-width="0.3"/>
    <line id="Line_29" data-name="Line 29" y2="400" transform="translate(566.7)" fill="none" stroke="rgba(0,48,101,0.5)" stroke-miterlimit="10" stroke-width="0.3"/>
    <line id="Line_30" data-name="Line 30" y2="400" transform="translate(600)" fill="none" stroke="rgba(0,48,101,0.5)" stroke-miterlimit="10" stroke-width="0.3"/>
    <line id="Line_31" data-name="Line 31" y2="400" transform="translate(633.3)" fill="none" stroke="rgba(0,48,101,0.5)" stroke-miterlimit="10" stroke-width="0.3"/>
    <line id="Line_32" data-name="Line 32" y2="400" transform="translate(666.7)" fill="none" stroke="rgba(0,48,101,0.5)" stroke-miterlimit="10" stroke-width="0.3"/>
    <line id="Line_33" data-name="Line 33" y2="400" transform="translate(700)" fill="none" stroke="rgba(0,48,101,0.5)" stroke-miterlimit="10" stroke-width="0.3"/>
    <line id="Line_34" data-name="Line 34" y2="400" transform="translate(733.3)" fill="none" stroke="rgba(0,48,101,0.5)" stroke-miterlimit="10" stroke-width="0.3"/>
    <line id="Line_35" data-name="Line 35" y2="400" transform="translate(766.7)" fill="none" stroke="rgba(0,48,101,0.5)" stroke-miterlimit="10" stroke-width="0.3"/>
  </g>
</svg>
